<svg xmlns="http://www.w3.org/2000/svg" xmlns:xlink="http://www.w3.org/1999/xlink" width="1932.849" height="1033" viewBox="0 0 1932.849 1033">
  <defs>
    <clipPath id="clip-path">
      <rect id="Rectangle_36" data-name="Rectangle 36" width="479.06" height="403.473" fill="none"/>
    </clipPath>
    <clipPath id="clip-path-2">
      <rect id="Rectangle_35" data-name="Rectangle 35" width="212.068" height="228.273" fill="none"/>
    </clipPath>
    <clipPath id="clip-path-3">
      <rect id="Rectangle_34" data-name="Rectangle 34" width="205.431" height="214.57" fill="none"/>
    </clipPath>
  </defs>
  <g id="Group_339" data-name="Group 339" transform="translate(12.849 -294)">
    <rect id="Rectangle_39" data-name="Rectangle 39" width="1920" height="1033" transform="translate(0 294)" fill="#ece4e0"/>
    <g id="Group_7" data-name="Group 7" transform="translate(-12.849 875.361) rotate(-2)">
      <g id="Group_6" data-name="Group 6" clip-path="url(#clip-path)">
        <path id="Path_8" data-name="Path 8" d="M3.688,184.42c16.627,13.441,35.829,16.56,46.71,8.6,6.832-4.994,9.142-13.446,9.834-15.98,3.707-13.564-1.807-24.386-4.917-34.418C46.921,115.552,53,84.383,66.377,65.186,69.91,60.119,82.555,41.979,99.566,43.06c19.074,1.216,29.662,25.71,30.73,28.272,5.63,13.508,4.505,27.036,3.688,36.877-1.4,16.8-6.324,28.186,0,41.793,1.517,3.265,2.725,5.775,4.917,6.146,7.55,1.278,15.252-24.782,30.73-56.543,13.465-27.63,30.3-54.412,54.085-77.441C243.045,3.453,254.223-.445,264.279.038c16.948.819,27.629,13.937,28.272,14.75,10.542,13.365,8.239,29.564,7.375,35.647-2.188,15.4-10.064,26.247-25.813,47.94-13.778,18.978-24.46,29.464-20.9,40.564a15.275,15.275,0,0,0,4.917,7.375c12.92,9.916,39.044-12.743,88.5-33.189,17.6-7.277,40.7-15.323,68.836-17.209,9.638-.647,25.612-.954,41.793,7.375,6.4,3.3,15.493,8.141,19.667,18.438,4.437,10.946.664,21.5,0,23.355-7.418,20.745-36.517,28.65-54.085,33.189-89.364,23.083-134.581,24.71-135.213,33.189-.572,7.67,35.142,23.509,70.065,19.667,14.513-1.6,21.163-5.742,39.335-4.917,10.671.484,26.783,1.423,41.793,12.292,5.964,4.319,17.026,12.329,19.667,25.813,3.368,17.193-8.643,34.656-20.9,43.022-19.4,13.246-43.836,6.709-76.211-2.458-45.613-12.917-63.345-28.926-118-41.793-21.688-5.106-29.578-5.1-30.73-2.458-2.265,5.195,21.322,21.044,46.71,38.105,33.7,22.647,45.922,27.521,52.856,44.251,1.739,4.2,7.6,18.326,1.229,31.959-6.189,13.255-20.089,17.805-22.126,18.438-23.086,7.174-47.61-11.73-62.689-23.355-29.893-23.044-38.9-44.871-73.752-63.919-4.763-2.6-14.667-7.7-17.209-4.917-2.4,2.624,3.238,10.625,15.98,33.189,13.816,24.466,16.384,31.337,14.75,39.335-1.551,7.6-6.282,13.22-8.6,15.98-4.669,5.55-12.6,12.215-19.667,13.521-18.635,3.443-38.95-28.928-45.481-39.335-27.363-43.6-18.089-66.078-40.91-89.907C44.92,264.769,29.216,253.173,0,248.339" transform="translate(0 0)" fill="#c0d2e6"/>
      </g>
    </g>
    <g id="Group_8" data-name="Group 8" transform="translate(1547.861 1087.442) rotate(-22)">
      <g id="Group_4" data-name="Group 4" clip-path="url(#clip-path-2)">
        <path id="Path_4" data-name="Path 4" d="M152.579,72c3.478-9.448,9.452-24.96,17-41,.584-1.242,4.389-7.828,12-21,4.306-7.453,5.864-10.061,8-10,3.114.089,5.754,5.8,10,21,6.371,22.808,8,35,8,35,3.619,27.091,5.428,40.637,4,57a168.943,168.943,0,0,1-13,52c-4.772,11.07-9.155,21.238-19,32a96.4,96.4,0,0,1-36,24c-8.406,3.221-31.312,12-58,4-21.323-6.39-33.826-20.121-41-28-17.973-19.739-24.446-41.408-30-60-5.466-18.3-1.981-16.236-8-36-3.509-11.522-9.425-30.581-5-36,3.744-4.586,18.543-3.9,72,26,.58-1.454,1.711-4.335,3-8,11.627-33.043,8.848-52.054,24-61a9.682,9.682,0,0,1,2-1c15.411-5.165,41.138,36.11,50,51" fill="#dca98a"/>
        <path id="Path_5" data-name="Path 5" d="M97.579,179c2.576-1.607,8.308,3.13,11,6,4.4,4.692,8.342,12.566,6,15-2.177,2.263-9.755-.2-14-5-4.8-5.423-5.747-14.286-3-16" fill="#fff"/>
        <path id="Path_6" data-name="Path 6" d="M124.635,156.885c3.513-.857,7.3,7.323,8.767,11.946,2.4,7.56,2.761,18.785-.906,20.744-3.408,1.821-10.256-4.385-12.436-12.006-2.464-8.615.829-19.77,4.575-20.684" fill="#fff"/>
        <path id="Path_7" data-name="Path 7" d="M157.248,160.217c2.869.994,2.786,8.43,2.245,12.327-.883,6.372-4.532,14.386-7.9,14.094-3.128-.272-5.972-7.716-4.909-14.033,1.2-7.141,7.5-13.448,10.561-12.388" fill="#fff"/>
      </g>
    </g>
    <g id="Group_9" data-name="Group 9" transform="translate(502.569 336.864)">
      <g id="Group_2" data-name="Group 2" clip-path="url(#clip-path-3)">
        <path id="Path_2" data-name="Path 2" d="M39.322,139.26c-9.449-25.054-35.68-25.594-39-50-1.447-10.637,2.35-19.254,4-23,6.424-14.581,20.894-27.858,37-29,15.233-1.08,19.249,9.767,31,7,17.32-4.078,14.716-29.085,37-40,13.462-6.594,27.268-3.765,31-3,4.682.96,22.12,4.534,30,18,10.836,18.518-8.544,35,2,56,5.9,11.759,13.2,9.039,23,25,3.523,5.739,11.1,18.093,10,34-1.28,18.413-14.046,39.378-31,43-17.14,3.662-28.306-12.594-40-6-7.821,4.41-4.34,12.534-13,24-9.089,12.034-26.549,21.126-45,19-2.062-.238-23.087-2.982-34-20-12.036-18.769,5.7-31.92-3-55" fill="#e7cfc0"/>
        <path id="Path_3" data-name="Path 3" d="M115.322,107.76a12.5,12.5,0,1,1-12.5-12.5,12.5,12.5,0,0,1,12.5,12.5" fill="#fff"/>
      </g>
    </g>
    <g id="Group_11" data-name="Group 11" transform="translate(-489 50)">
      <g id="Group_10" data-name="Group 10" transform="translate(16 71)">
        <g id="Rectangle_37" data-name="Rectangle 37" transform="translate(1287 788)" fill="#5f79c7" stroke="#707070" stroke-width="1">
          <rect width="292" height="99" rx="19" stroke="none"/>
          <rect x="0.5" y="0.5" width="291" height="98" rx="18.5" fill="none"/>
        </g>
        <text id="Click_here" data-name="Click here" transform="translate(1346 853)" fill="#eee4df" font-size="40" font-family="OpenSans, Open Sans"><tspan x="0" y="0">click here</tspan></text>
      </g>
      <text id="Portfolio" transform="translate(1260 669)" fill="#7b6c6c" font-size="97" font-family="PlayfairDisplay-Regular, Playfair Display"><tspan x="0" y="0">Portfolio</tspan></text>
      <text id="Process_af_alle_tema_opgaver" data-name="Process af alle tema opgaver" transform="translate(1182 773)" fill="#796d6c" font-size="40" font-family="OpenSans, Open Sans"><tspan x="0" y="0">process af alle tema opgaver</tspan></text>
    </g>
  </g>
</svg>
