<?xml version="1.0" encoding="UTF-8"?>
<svg id="Layer_2" data-name="Layer 2" xmlns="http://www.w3.org/2000/svg" viewBox="0 0 212.07 228.27">
  <defs>
    <style>
      .cls-1 {
        fill: #ffc79f;
      }

      .cls-2 {
        fill: #dca98a;
      }
    </style>
  </defs>
  <g id="Layer_1-2" data-name="Layer 1">
    <g>
      <path class="cls-2" d="m152.58,72c3.48-9.45,9.45-24.96,17-41,.58-1.24,4.39-7.83,12-21C185.89,2.55,187.44-.06,189.58,0c3.11.09,5.75,5.8,10,21,6.37,22.81,8,35,8,35,3.62,27.09,5.43,40.64,4,57-2.14,24.5-9.06,42.86-13,52-4.77,11.07-9.15,21.24-19,32-2.65,2.89-14.92,15.92-36,24-8.41,3.22-31.31,12-58,4-21.32-6.39-33.83-20.12-41-28-17.97-19.74-24.45-41.41-30-60-5.47-18.3-1.98-16.24-8-36-3.51-11.52-9.42-30.58-5-36,3.74-4.59,18.54-3.9,72,26,.58-1.45,1.71-4.34,3-8,11.63-33.04,8.85-52.05,24-61,.86-.51,1.31-.77,2-1,15.41-5.16,41.14,36.11,50,51Z"/>
      <path class="cls-1" d="m97.58,179c2.58-1.61,8.31,3.13,11,6,4.4,4.69,8.34,12.57,6,15-2.18,2.26-9.75-.2-14-5-4.8-5.42-5.75-14.29-3-16Z"/>
      <path class="cls-1" d="m124.64,156.89c3.51-.86,7.3,7.32,8.77,11.95,2.4,7.56,2.76,18.78-.91,20.74-3.41,1.82-10.26-4.39-12.44-12.01-2.46-8.62.83-19.77,4.57-20.68Z"/>
      <path class="cls-1" d="m157.25,160.22c2.87.99,2.79,8.43,2.25,12.33-.88,6.37-4.53,14.39-7.9,14.09-3.13-.27-5.97-7.72-4.91-14.03,1.2-7.14,7.5-13.45,10.56-12.39Z"/>
    </g>
  </g>
</svg>