<?xml version="1.0" encoding="UTF-8"?>
<svg id="Layer_2" data-name="Layer 2" xmlns="http://www.w3.org/2000/svg" viewBox="0 0 211.81 203.47">
  <defs>
    <style>
      .cls-1 {
        fill: #e7cfc0;
      }

      .cls-2 {
        fill: #ffc79f;
      }
    </style>
  </defs>
  <g id="Layer_1-2" data-name="Layer 1">
    <g>
      <path class="cls-1" d="m33.81,83.43c9.1-25.18-10.49-42.64,2.85-63.35,5.81-9.03,14.3-13.11,17.99-14.88,14.36-6.91,33.98-7.6,46.97,2,12.28,9.08,8.29,19.93,19.01,25.46,15.82,8.15,30.09-12.54,54.12-6.36,14.52,3.74,23.17,14.86,25.51,17.86,2.94,3.77,13.87,17.82,11.11,33.18-3.8,21.12-29.23,21.05-34.87,43.87-3.15,12.77,4.16,15.45,1.24,33.95-1.05,6.65-3.32,20.97-14.49,32.34-12.94,13.16-36.26,20.8-51.5,12.54-15.41-8.35-13.33-27.97-26.51-30.55-8.81-1.73-11.44,6.71-25.48,9.8-14.73,3.24-33.91-1.19-46.55-14.8-1.41-1.52-15.61-17.27-12.85-37.3,3.05-22.09,25.08-20.56,33.46-43.76Z"/>
      <circle class="cls-2" cx="102.55" cy="100.75" r="12.5"/>
    </g>
  </g>
</svg>