<svg xmlns="http://www.w3.org/2000/svg" width="1346" height="594" viewBox="0 0 1346 594">
  <g id="Group_408" data-name="Group 408" transform="translate(-287 -1824)">
    <g id="Group_352" data-name="Group 352" transform="translate(89 850)">
      <g id="Rectangle_197" data-name="Rectangle 197" transform="translate(198 974)" fill="#6877bc" stroke="#707070" stroke-width="1">
        <rect width="1346" height="564" rx="27" stroke="none"/>
        <rect x="0.5" y="0.5" width="1345" height="563" rx="26.5" fill="none"/>
      </g>
    </g>
    <g id="Group_411" data-name="Group 411">
      <text id="Experience" transform="translate(1267 1930)" fill="#eae4e0" font-size="52" font-family="PlayfairDisplay-Regular, Playfair Display"><tspan x="0" y="0">Experience</tspan></text>
      <text id="IS-LAND_DESSERTBAR_Founder_2018-2022" data-name="IS-LAND DESSERTBAR
Founder
2018-2022" transform="translate(1566 2015)" fill="#eae4e0" font-size="22" font-family="OpenSans-Semibold, Open Sans" font-weight="600"><tspan x="-225.543" y="0">IS-LAND DESSERTBAR</tspan><tspan font-family="OpenSans, Open Sans" font-weight="400"><tspan x="-86.453" y="30">Founder</tspan><tspan x="-107.712" y="60">2018-2022</tspan></tspan></text>
      <text id="HUSAVIK_CAPE_HOTEL_Guest_reception_manager_2016-2017_" data-name="HUSAVIK CAPE HOTEL
Guest reception manager
2016-2017
" transform="translate(1269 2118)" fill="#eae4e0" font-size="20" font-family="OpenSans-Semibold, Open Sans" font-weight="600"><tspan x="92.148" y="21">HUSAVIK CAPE HOTEL</tspan><tspan font-family="OpenSans, Open Sans" font-weight="400"><tspan x="63.027" y="48">Guest reception manager</tspan><tspan x="202.08" y="75">2016-2017</tspan><tspan x="300" y="102"></tspan></tspan></text>
    </g>
    <line id="Line_4" data-name="Line 4" y2="293" transform="translate(1167 2005)" fill="none" stroke="#ddd9dd" stroke-width="2"/>
    <g id="Group_410" data-name="Group 410">
      <text id="Skills" transform="translate(898 1930)" fill="#eae4e0" font-size="52" font-family="PlayfairDisplay-Regular, Playfair Display"><tspan x="0" y="0">Skills</tspan></text>
      <g id="Group_404" data-name="Group 404" transform="translate(0 -76)">
        <text id="HTML_CSS_JS" data-name="HTML/CSS/JS" transform="translate(960 2091)" fill="#eae4e0" font-size="22" font-family="OpenSans-Semibold, Open Sans" font-weight="600"><tspan x="-67.584" y="0">HTML/CSS/JS</tspan></text>
        <rect id="Rectangle_237" data-name="Rectangle 237" width="132" height="22" rx="11" transform="translate(894 2105)" fill="#eae4e0"/>
        <g id="Path_191" data-name="Path 191" transform="translate(894 2105)" fill="#6b77b7">
          <path d="M 76.93614196777344 21.5 L 9.95644474029541 21.5 C 4.742144584655762 21.5 0.5000001788139343 16.78972244262695 0.5000001788139343 11 C 0.5000001788139343 5.210277557373047 4.742144584655762 0.5 9.95644474029541 0.5 L 76.93614196777344 0.5 C 82.15044403076172 0.5 86.392578125 5.210277557373047 86.392578125 11 C 86.392578125 16.78972244262695 82.15044403076172 21.5 76.93614196777344 21.5 Z" stroke="none"/>
          <path d="M 9.956443786621094 1 C 5.017845153808594 1 0.9999923706054688 5.485977172851562 0.9999923706054688 11 C 0.9999923706054688 16.51402282714844 5.017845153808594 21 9.956443786621094 21 L 76.93613433837891 21 C 81.87473297119141 21 85.89257049560547 16.51402282714844 85.89257049560547 11 C 85.89257049560547 5.485977172851562 81.87473297119141 1 76.93613433837891 1 L 9.956443786621094 1 M 9.956443786621094 0 L 76.93613433837891 0 C 82.43492126464844 0 86.89257049560547 4.924871444702148 86.89257049560547 11 C 86.89257049560547 17.07513046264648 82.43492126464844 22 76.93613433837891 22 L 9.956443786621094 22 C 4.4576416015625 22 -7.62939453125e-06 17.07513046264648 -7.62939453125e-06 11 C -7.62939453125e-06 4.924871444702148 4.4576416015625 0 9.956443786621094 0 Z" stroke="none" fill="#eae4e0"/>
        </g>
      </g>
      <g id="Group_407" data-name="Group 407" transform="translate(0 101)">
        <g id="Group_403" data-name="Group 403" transform="translate(0 83)">
          <text id="Adobe_Illustrator_" data-name="Adobe Illustrator
" transform="translate(960 2015)" fill="#eae4e0" font-size="22" font-family="OpenSans-Semibold, Open Sans" font-weight="600"><tspan x="-89.735" y="0">Adobe Illustrator</tspan><tspan x="0" y="30"></tspan></text>
          <rect id="Rectangle_235" data-name="Rectangle 235" width="132" height="22" rx="11" transform="translate(894 2029)" fill="#eae4e0"/>
        </g>
        <g id="Rectangle_239" data-name="Rectangle 239" transform="translate(894 2112)" fill="#6b77b7" stroke="#eae4e0" stroke-width="1">
          <rect width="66" height="22" rx="11" stroke="none"/>
          <rect x="0.5" y="0.5" width="65" height="21" rx="10.5" fill="none"/>
        </g>
      </g>
      <g id="Group_405" data-name="Group 405" transform="translate(0 92)">
        <text id="Adobe_XD" data-name="Adobe XD" transform="translate(960 2015)" fill="#eae4e0" font-size="22" font-family="OpenSans-Semibold, Open Sans" font-weight="600"><tspan x="-51.81" y="0">Adobe XD</tspan></text>
        <rect id="Rectangle_235-2" data-name="Rectangle 235" width="132" height="22" rx="11" transform="translate(894 2029)" fill="#eae4e0"/>
        <g id="Path_190" data-name="Path 190" transform="translate(894 2029)" fill="#6b77b7">
          <path d="M 96.77437591552734 21.5 L 14.99321746826172 21.5 C 7.001631736755371 21.5 0.5000033378601074 16.78971481323242 0.5000033378601074 11 C 0.5000033378601074 5.210285663604736 7.001631736755371 0.5 14.99321746826172 0.5 L 96.77437591552734 0.5 C 104.7659454345703 0.5 111.267578125 5.210285663604736 111.267578125 11 C 111.267578125 16.78971481323242 104.7659454345703 21.5 96.77437591552734 21.5 Z" stroke="none"/>
          <path d="M 14.99320220947266 1 C 11.19956207275391 1 7.644508361816406 2.075399398803711 4.982955932617188 4.028108596801758 C 2.414512634277344 5.912477493286133 1.000007629394531 8.388477325439453 1.000007629394531 11 C 1.000007629394531 13.61152267456055 2.414512634277344 16.08752250671387 4.982955932617188 17.97189331054688 C 7.644508361816406 19.92460060119629 11.19956207275391 21 14.99320220947266 21 L 96.77437591552734 21 C 100.5680236816406 21 104.1230621337891 19.92460060119629 106.7846221923828 17.97189331054688 C 109.3530654907227 16.08752250671387 110.7675704956055 13.61152267456055 110.7675704956055 11 C 110.7675704956055 8.388477325439453 109.3530654907227 5.912477493286133 106.7846221923828 4.028108596801758 C 104.1230621337891 2.075399398803711 100.5680236816406 1 96.77437591552734 1 L 14.99320220947266 1 M 14.99320220947266 0 L 96.77437591552734 0 C 105.0548782348633 0 111.7675704956055 4.924861907958984 111.7675704956055 11 C 111.7675704956055 17.07513809204102 105.0548782348633 22 96.77437591552734 22 L 14.99320220947266 22 C 6.712699890136719 22 7.62939453125e-06 17.07513809204102 7.62939453125e-06 11 C 7.62939453125e-06 4.924861907958984 6.712699890136719 0 14.99320220947266 0 Z" stroke="none" fill="#eae4e0"/>
        </g>
      </g>
      <g id="Group_406" data-name="Group 406" transform="translate(0 276)">
        <text id="Adobe_Premiere_Pro" data-name="Adobe Premiere Pro" transform="translate(960 2015)" fill="#eae4e0" font-size="22" font-family="OpenSans-Semibold, Open Sans" font-weight="600"><tspan x="-106.17" y="0">Adobe Premiere Pro</tspan></text>
        <rect id="Rectangle_235-3" data-name="Rectangle 235" width="132" height="22" rx="11" transform="translate(894 2029)" fill="#eae4e0"/>
        <g id="Path_190-2" data-name="Path 190" transform="translate(894 2029)" fill="#6b77b7">
          <path d="M 57.14633941650391 21.5 L 8.853659629821777 21.5 C 4.247439861297607 21.5 0.5 16.78972053527832 0.5 11 C 0.5 5.210279941558838 4.247439861297607 0.5 8.853659629821777 0.5 L 57.14633941650391 0.5 C 61.75255966186523 0.5 65.5 5.210279941558838 65.5 11 C 65.5 16.78972053527832 61.75255966186523 21.5 57.14633941650391 21.5 Z" stroke="none"/>
          <path d="M 8.853660583496094 1 C 4.523139953613281 1 1 5.485979080200195 1 11 C 1 16.51401901245117 4.523139953613281 21 8.853660583496094 21 L 57.14633941650391 21 C 61.47686004638672 21 65 16.51401901245117 65 11 C 65 5.485979080200195 61.47686004638672 1 57.14633941650391 1 L 8.853660583496094 1 M 8.853660583496094 0 L 57.14633941650391 0 C 62.03607940673828 0 66 4.924869537353516 66 11 C 66 17.07513046264648 62.03607940673828 22 57.14633941650391 22 L 8.853660583496094 22 C 3.963920593261719 22 0 17.07513046264648 0 11 C 0 4.924869537353516 3.963920593261719 0 8.853660583496094 0 Z" stroke="none" fill="#eae4e0"/>
        </g>
      </g>
    </g>
    <line id="Line_1" data-name="Line 1" y2="293" transform="translate(752 2005)" fill="none" stroke="#ddd9dd" stroke-width="2"/>
    <g id="Group_409" data-name="Group 409">
      <text id="Education_" data-name="Education
" transform="translate(418 1930)" fill="#eae4e0" font-size="52" font-family="PlayfairDisplay-Regular, Playfair Display"><tspan x="0" y="0">Education</tspan><tspan x="0" y="69"></tspan></text>
      <text id="UPPER_SECONDARY_DEGREE_Fjölbrautarskólinn_í_Garðabæ_Gratuaded_2015" data-name="UPPER SECONDARY DEGREE
Fjölbrautarskólinn í Garðabæ
Gratuaded 2015" transform="translate(357 2015)" fill="#eae4e0" font-size="22" font-family="OpenSans-Semibold, Open Sans" font-weight="600"><tspan x="0" y="0">UPPER SECONDARY DEGREE</tspan><tspan font-family="OpenSans, Open Sans" font-weight="400"><tspan x="0" y="30">Fjölbrautarskólinn í Garðabæ</tspan><tspan x="0" y="60">Gratuaded 2015</tspan></tspan></text>
      <text id="B.A._IN_PSYCHOLOGY_University_of_Akureyri_Gratuaded_2021" data-name="B.A. IN PSYCHOLOGY
University of Akureyri
Gratuaded 2021" transform="translate(357 2118)" fill="#eae4e0" font-size="20" font-family="OpenSans-Semibold, Open Sans" font-weight="600"><tspan x="0" y="21">B.A. IN PSYCHOLOGY</tspan><tspan font-family="OpenSans, Open Sans" font-weight="400"><tspan x="0" y="48">University of Akureyri</tspan><tspan x="0" y="75">Gratuaded 2021</tspan></tspan></text>
      <text id="MULTIMEDIADESIGN_KEA_On_going_-_2024" data-name="MULTIMEDIADESIGN
KEA
On going - 2024" transform="translate(357 2233)" fill="#eae4e0" font-size="20" font-family="OpenSans-Semibold, Open Sans" font-weight="600"><tspan x="0" y="21">MULTIMEDIADESIGN</tspan><tspan font-family="OpenSans, Open Sans" font-weight="400"><tspan x="0" y="48">KEA</tspan><tspan x="0" y="75">On going - 2024</tspan></tspan></text>
    </g>
  </g>
</svg>
