<svg id="Group_319" data-name="Group 319" xmlns="http://www.w3.org/2000/svg" xmlns:xlink="http://www.w3.org/1999/xlink" width="379.726" height="379.728" viewBox="0 0 379.726 379.728">
  <defs>
    <clipPath id="clip-path">
      <rect id="Rectangle_169" data-name="Rectangle 169" width="379.726" height="379.728" fill="none"/>
    </clipPath>
  </defs>
  <g id="Group_270" data-name="Group 270">
    <g id="Group_269" data-name="Group 269" clip-path="url(#clip-path)">
      <path id="Path_139" data-name="Path 139" d="M142.523,112.321c7.225-2.3,5.3-12,13.574-19.521,8.379-7.614,23.747-9.831,33.355-3.38,8.827,5.929,10.638,17.731,11.32,22.181,2.008,13.1-3.231,20.595,1.188,24.5,3.337,2.954,7.038-.691,16.937.876,3.607.571,13.112,2.077,19.13,9.726,6.322,8.034,4.96,17.973,4.646,20.266-1.546,11.285-9.292,18.394-13.313,22.085-10.09,9.261-19.046,2.7-26.16,10.428-8.894,9.662.69,20.17-7.272,30.545-7.886,10.274-24.145,17.713-36.293,12.751-7.911-3.231-15.37-12.247-17.735-21.532-1.295-5.084-1.142-10.568-3.735-11.285-2.063-.571-3.639,2.491-7.307,4.629-7.3,4.253-16.456,1.1-18.089.536-10.734-3.7-18.777-15.771-18.254-26.663.668-13.953,15.063-19.063,12.533-29.782-1.491-6.321-6.785-5.775-10.54-14.485-.611-1.417-5.395-12.992.226-23.35,5.6-10.317,18.788-14.4,28.465-13.254,9.207,1.092,11.721,6.505,17.327,4.724" transform="translate(27.213 24.784)" fill="#6478c1"/>
    </g>
  </g>
  <text id="B" transform="matrix(-0.209, -0.978, 0.978, -0.209, 101.863, 224.299)" fill="#7b6c6c" font-size="48" font-family="PlayfairDisplay-Regular, Playfair Display"><tspan x="0" y="0">B</tspan></text>
  <g id="Group_272" data-name="Group 272">
    <g id="Group_271" data-name="Group 271" clip-path="url(#clip-path)">
      <path id="Path_140" data-name="Path 140" d="M84,165.926a6.356,6.356,0,0,1,.174,2.343,1.844,1.844,0,0,1-.906,1.269,8.366,8.366,0,0,1-2.478.83l-12.124,2.585-.859-4.026q-.95-4.456.58-6.911a7.806,7.806,0,0,1,5.316-3.265Q82.092,156.964,84,165.926Zm-31.858,6.843q-.756-3.545.68-5.506t5.03-2.726a9.631,9.631,0,0,1,6.011.347q2.464,1.1,3.3,5.031l.686,3.212-10.831,2.309a8.9,8.9,0,0,1-2.648.263,1.933,1.933,0,0,1-1.418-.775A5.791,5.791,0,0,1,52.145,172.769Zm14.19-7.234-.1.021a11.1,11.1,0,0,0-4.536-4.82,7.972,7.972,0,0,0-5.356-.686,6.761,6.761,0,0,0-4.906,3.775q-1.5,3.052-.462,7.939.246,1.151.489,2.05l1.15,5.165q.816,3.835,1.1,5.877l.957-.2a9.689,9.689,0,0,1-.151-2.6,1.765,1.765,0,0,1,.872-1.315,8.837,8.837,0,0,1,2.574-.848l23.769-5.067a8.8,8.8,0,0,1,2.7-.276,1.762,1.762,0,0,1,1.332.845,9.641,9.641,0,0,1,.919,2.433l.959-.2q-.574-1.983-1.409-5.912-.636-2.971-1.193-6.059c-.1-.612-.239-1.353-.423-2.214a15.054,15.054,0,0,0-2.482-5.884,9.343,9.343,0,0,0-4.13-3.278,8.778,8.778,0,0,0-5.136-.357,7.914,7.914,0,0,0-5.1,3.441Q65.932,160.112,66.335,165.535Z" transform="translate(14.632 44.484)" fill="none" stroke="#fff" stroke-miterlimit="10" stroke-width="0.75"/>
    </g>
  </g>
  <text id="j" transform="translate(94.599 196.376) rotate(-89.837)" fill="#7b6c6c" font-size="46" font-family="PlayfairDisplay-Regular, Playfair Display"><tspan x="0" y="0">j</tspan></text>
  <g id="Group_274" data-name="Group 274">
    <g id="Group_273" data-name="Group 273" clip-path="url(#clip-path)">
      <path id="Path_141" data-name="Path 141" d="M46.534,147.606a3.175,3.175,0,1,0,.936-2.2A3.008,3.008,0,0,0,46.534,147.606Zm46.673,7.974a9.238,9.238,0,0,0-.8-3.849,9.993,9.993,0,0,0-2.173-3.117q-3.714-3.539-11.846-3.561l-20.138-.058a16.022,16.022,0,0,1,.67,5.1q0,1.518-.156,3.037l1.03,0a3.533,3.533,0,0,1,1.037-2.888,5.213,5.213,0,0,1,3.284-.823l18.962.054a12.74,12.74,0,0,1,6.807,1.563,5.365,5.365,0,0,1,2.585,4.54Z" transform="translate(13.468 41.816)" fill="none" stroke="#fff" stroke-miterlimit="10" stroke-width="0.75"/>
    </g>
  </g>
  <text id="a" transform="translate(95.988 184.284) rotate(-79.196)" fill="#7b6c6c" font-size="48" font-family="PlayfairDisplay-Regular, Playfair Display"><tspan x="0" y="0">a</tspan></text>
  <g id="Group_276" data-name="Group 276">
    <g id="Group_275" data-name="Group 275" clip-path="url(#clip-path)">
      <path id="Path_142" data-name="Path 142" d="M80.675,138.21a3.743,3.743,0,0,1-1.639,2.581,4.64,4.64,0,0,1-3.475.433,5.456,5.456,0,0,1-2.923-1.405,6.555,6.555,0,0,1-1.531-2.313,22.432,22.432,0,0,1-.9-3.239q-.418-1.725-.705-2.578a3.421,3.421,0,0,0-.876-1.416l9.432,1.8Q81.281,135.034,80.675,138.21ZM82.2,140.7a9.524,9.524,0,0,0-.13-4.415,8.548,8.548,0,0,0-2.71-3.959,5,5,0,0,0,3.3-.318,3.957,3.957,0,0,0,1.77-3,5.436,5.436,0,0,0,.017-2.317,11.847,11.847,0,0,0-.962-2.4l-.919.374a6.23,6.23,0,0,1,.539,1.225,2.325,2.325,0,0,1,.059,1.133,1.287,1.287,0,0,1-.75,1.055,3.415,3.415,0,0,1-1.8.005l-13.38-2.553a17.135,17.135,0,0,0-4.192-.377,5.529,5.529,0,0,0-2.979,1.1,8.221,8.221,0,0,0-2.865,5.34,13.875,13.875,0,0,0-.214,4,10.173,10.173,0,0,0,.788,3.194A6.869,6.869,0,0,0,59,140.732a3.259,3.259,0,0,0,1.819.921,3.221,3.221,0,0,0,2.174-.284,2.476,2.476,0,0,0,1.228-1.859A2.875,2.875,0,0,0,63.9,137.4a2.488,2.488,0,0,0-1.755-1.133,2.938,2.938,0,0,0-2.05.282,3.082,3.082,0,0,0-1.317,1.421q-1.468-1.727-.824-5.1a4.931,4.931,0,0,1,1.663-3.1q1.261-.983,4.051-.45l2.984.57a2.368,2.368,0,0,1,1.822,1.694,22.684,22.684,0,0,1,.922,4.317,35.491,35.491,0,0,0,.921,4.59,9.05,9.05,0,0,0,1.681,3.213,5.425,5.425,0,0,0,3.337,1.859,5.9,5.9,0,0,0,4.49-.665A6.107,6.107,0,0,0,82.2,140.7Z" transform="translate(16.475 35.97)" fill="none" stroke="#fff" stroke-miterlimit="10" stroke-width="0.75"/>
    </g>
  </g>
  <text id="r" transform="translate(98.399 161.06) rotate(-65.967)" fill="#7b6c6c" font-size="46" font-family="PlayfairDisplay-Regular, Playfair Display"><tspan x="0" y="0">r</tspan></text>
  <g id="Group_278" data-name="Group 278">
    <g id="Group_277" data-name="Group 277" clip-path="url(#clip-path)">
      <path id="Path_143" data-name="Path 143" d="M66.5,106.459a5.985,5.985,0,0,0,0,4.695,11.6,11.6,0,0,0,2.835,4.348l-5.595-2.494a15.879,15.879,0,0,1-1.448,4.933q-.6,1.342-1.371,2.716l.94.419a3.53,3.53,0,0,1,2.116-2.222,5.205,5.205,0,0,1,3.338.576l14.007,6.246a3.653,3.653,0,0,1,2.188,1.889,4.275,4.275,0,0,1-.484,2.948l.94.42q1.658-4.2,2.177-5.36.557-1.253,2.73-5.757l.522-1.055-.941-.419a6.959,6.959,0,0,1-2.391,3.2,3.513,3.513,0,0,1-3.392-.09l-9.488-4.232a10.758,10.758,0,0,1-3.355-2.462,10.409,10.409,0,0,1-2.335-3.724,4.94,4.94,0,0,1,.052-3.786,1.172,1.172,0,0,1,.865-.74,3.045,3.045,0,0,0,1.739,2.6,2.388,2.388,0,0,0,2.01.064,2.648,2.648,0,0,0,1.375-1.4,2.52,2.52,0,0,0,0-2.227,3.287,3.287,0,0,0-1.683-1.581,3.559,3.559,0,0,0-3.015.023A4.614,4.614,0,0,0,66.5,106.459Z" transform="translate(17.631 29.996)" fill="none" stroke="#fff" stroke-miterlimit="10" stroke-width="0.75"/>
    </g>
  </g>
  <text id="n" transform="translate(107 142.631) rotate(-51.462)" fill="#7b6c6c" font-size="47" font-family="PlayfairDisplay-Regular, Playfair Display"><tspan x="0" y="0">n</tspan></text>
  <g id="Group_280" data-name="Group 280">
    <g id="Group_279" data-name="Group 279" clip-path="url(#clip-path)">
      <path id="Path_144" data-name="Path 144" d="M79.214,88.8a8.919,8.919,0,0,0-1.974,4.722,9.061,9.061,0,0,0,1.421,5.487l-4.522-3.6A15.936,15.936,0,0,1,71.5,99.82q-.917,1.151-2.009,2.285l.806.642a3.528,3.528,0,0,1,2.6-1.621,5.209,5.209,0,0,1,3.088,1.394l12,9.555a3.665,3.665,0,0,1,1.647,2.378,4.29,4.29,0,0,1-1.206,2.734l.8.641q2.656-3.648,3.51-4.721t3.572-4.17l-.8-.641a3.372,3.372,0,0,1-2.166,1.5,4.079,4.079,0,0,1-2.607-1.17l-8.51-6.776a11.6,11.6,0,0,1-3.011-3.5,7.591,7.591,0,0,1-1-3.9,5.8,5.8,0,0,1,1.307-3.53q1.5-1.876,3.115-1.59a8.974,8.974,0,0,1,3.765,2l11.076,8.822a4.1,4.1,0,0,1,1.724,2.281,3.375,3.375,0,0,1-.98,2.446l.806.642q2.41-3.34,3.265-4.415t3.817-4.477l-.8-.641a4.284,4.284,0,0,1-2.394,1.788,3.655,3.655,0,0,1-2.683-1.073l-10.235-8.15a15.932,15.932,0,0,0-3.346-2.168,5.571,5.571,0,0,0-2.743-.491A6.82,6.82,0,0,0,79.214,88.8Z" transform="translate(20.113 24.856)" fill="none" stroke="#fff" stroke-miterlimit="10" stroke-width="0.75"/>
    </g>
  </g>
  <text id="e" transform="translate(124.945 121.782) rotate(-36.11)" fill="#7b6c6c" font-size="48" font-family="PlayfairDisplay-Regular, Playfair Display"><tspan x="0" y="0">e</tspan></text>
  <g id="Group_282" data-name="Group 282">
    <g id="Group_281" data-name="Group 281" clip-path="url(#clip-path)">
      <path id="Path_145" data-name="Path 145" d="M95.156,73.975a3.821,3.821,0,0,1,4.372-.034,14.052,14.052,0,0,1,4.643,4.495l-8.629,6.3a13.176,13.176,0,0,1-2.266-6.6A4.853,4.853,0,0,1,95.156,73.975Zm17.958,10.069a8.439,8.439,0,0,1-.231,4.838,7.713,7.713,0,0,1-2.7,3.365,6.021,6.021,0,0,1-3.714,1.1,8.995,8.995,0,0,1-4.438-1.344,13.881,13.881,0,0,1-4.171-3.93,30.121,30.121,0,0,1-1.73-2.62l12.39-9.039q-3.2-4.394-6.7-5.15a8.6,8.6,0,0,0-7.056,1.841,10.134,10.134,0,0,0-3.714,4.8,10.91,10.91,0,0,0-.284,6.18,18.34,18.34,0,0,0,3.251,6.786,15.472,15.472,0,0,0,5,4.57,10.269,10.269,0,0,0,5.775,1.306,11.141,11.141,0,0,0,5.808-2.266,9.1,9.1,0,0,0,3.588-5.015,9.732,9.732,0,0,0-.055-5.689Z" transform="translate(26.181 20.577)" fill="none" stroke="#fff" stroke-miterlimit="10" stroke-width="0.75"/>
    </g>
  </g>
  <text id="y" transform="translate(143.095 108.227) rotate(-22.217)" fill="#7b6c6c" font-size="48" font-family="PlayfairDisplay-Regular, Playfair Display"><tspan x="0" y="0">y</tspan></text>
  <g id="Group_284" data-name="Group 284">
    <g id="Group_283" data-name="Group 283" clip-path="url(#clip-path)">
      <path id="Path_146" data-name="Path 146" d="M122.887,60.884q-1.406.574-3.867,1.421l.373.908a6.493,6.493,0,0,1,2.843-.422A1.815,1.815,0,0,1,123.683,64a7.208,7.208,0,0,1,.355,2.289l.318,15.166L113.392,70.162a6.277,6.277,0,0,1-1.453-2,1.328,1.328,0,0,1,.213-1.621,8.1,8.1,0,0,1,2.271-1.246l-.389-.953q-3.52,1.756-5.786,2.681a35.057,35.057,0,0,1-4.557,1.543l.388.953a3.05,3.05,0,0,1,1.747-.13A5.567,5.567,0,0,1,108.2,70.8l16.307,16.469.1,4.777q.083,4.095-2.411,5.113a.7.7,0,0,1-.291.066,2.37,2.37,0,0,0,.392-2.541,2.115,2.115,0,0,0-1.3-1.3,2.646,2.646,0,0,0-1.886.11,2.535,2.535,0,0,0-1.5,1.381,2.6,2.6,0,0,0,.08,2.005,2.663,2.663,0,0,0,1.678,1.644,3.6,3.6,0,0,0,2.518-.182,7.435,7.435,0,0,0,1.794-1.051,4.225,4.225,0,0,0,1.262-1.574,8.72,8.72,0,0,0,.654-3.971l-.07-4.576L125,64.628a7.754,7.754,0,0,1,.377-2.906,2.76,2.76,0,0,1,1.275-1.474l-.37-.906Q124.881,60.07,122.887,60.884Z" transform="translate(30.011 17.175)" fill="none" stroke="#fff" stroke-miterlimit="10" stroke-width="0.75"/>
    </g>
  </g>
  <text id="_" data-name=" " transform="matrix(0.976, -0.216, 0.216, 0.976, 163.279, 98.197)" fill="#7b6c6c" font-size="46" font-family="PlayfairDisplay-Regular, Playfair Display"><tspan x="0" y="0"> </tspan></text>
  <text id="_2" data-name=" " transform="translate(174.588 95.659) rotate(-5.538)" fill="#7b6c6c" font-size="46" font-family="PlayfairDisplay-Regular, Playfair Display"><tspan x="0" y="0"> </tspan></text>
  <text id="M" transform="translate(185.341 93.349) rotate(10.025)" fill="#7b6c6c" font-size="47" font-family="PlayfairDisplay-Regular, Playfair Display"><tspan x="0" y="0">M</tspan></text>
  <g id="Group_286" data-name="Group 286">
    <g id="Group_285" data-name="Group 285" clip-path="url(#clip-path)">
      <path id="Path_147" data-name="Path 147" d="M188.9,55.283l.17-.966q-2.246-.246-6.154-.939l-2.267-.4L165.363,78.938l-5.675-29.813q-1.619-.137-4.127-.582-2.9-.513-4.461-.937l-.17.964a9.807,9.807,0,0,1,2.463.833,1.761,1.761,0,0,1,.89,1.3,8.848,8.848,0,0,1-.178,2.705L149.957,76.86a10.136,10.136,0,0,1-.781,2.723,2.165,2.165,0,0,1-1.347,1.154,6.825,6.825,0,0,1-2.6.063l-.171.964q1.619.137,4.513.65,3.186.563,4.9,1.015l.173-.964a8.587,8.587,0,0,1-2.759-1.011,2.216,2.216,0,0,1-.994-1.543,9.335,9.335,0,0,1,.181-2.855l4.5-25.476,6.624,33.464.774.137L180.114,56.02,175.541,81.88a8.912,8.912,0,0,1-.759,2.6,1.76,1.76,0,0,1-1.282.917,9.742,9.742,0,0,1-2.6-.061l-.17.964q2.052.213,6.2.946,3.907.69,6.1,1.229l.17-.964a9.781,9.781,0,0,1-2.467-.834,1.761,1.761,0,0,1-.888-1.3,8.862,8.862,0,0,1,.179-2.705l4.229-23.932a8.927,8.927,0,0,1,.759-2.6,1.768,1.768,0,0,1,1.283-.918A9.81,9.81,0,0,1,188.9,55.283Z" transform="translate(41.984 13.778)" fill="none" stroke="#fff" stroke-miterlimit="10" stroke-width="0.75"/>
    </g>
  </g>
  <text id="a-2" data-name="a" transform="translate(224.44 102.386) rotate(29.081)" fill="#7b6c6c" font-size="48" font-family="PlayfairDisplay-Regular, Playfair Display"><tspan x="0" y="0">a</tspan></text>
  <g id="Group_288" data-name="Group 288">
    <g id="Group_287" data-name="Group 287" clip-path="url(#clip-path)">
      <path id="Path_148" data-name="Path 148" d="M182.623,87.65a3.749,3.749,0,0,1-1.937-2.366,4.654,4.654,0,0,1,.678-3.436,5.457,5.457,0,0,1,2.253-2.335,6.58,6.58,0,0,1,2.674-.727,22.668,22.668,0,0,1,3.359.159q1.772.145,2.673.139a3.414,3.414,0,0,0,1.618-.388l-4.669,8.392Q185.45,89.222,182.623,87.65Zm-2.835.665a9.509,9.509,0,0,0,4.231,1.261,8.542,8.542,0,0,0,4.61-1.333,5,5,0,0,0-.734,3.236,3.971,3.971,0,0,0,2.3,2.623,5.444,5.444,0,0,0,2.193.743,12.019,12.019,0,0,0,2.584-.16l-.066-.99a6.308,6.308,0,0,1-1.332.128,2.327,2.327,0,0,1-1.095-.3,1.277,1.277,0,0,1-.765-1.043,3.382,3.382,0,0,1,.556-1.707l6.62-11.905A17.146,17.146,0,0,0,200.562,75a5.551,5.551,0,0,0-.113-3.175,8.236,8.236,0,0,0-4.174-4.394,13.854,13.854,0,0,0-3.729-1.458,10.165,10.165,0,0,0-3.279-.254,6.9,6.9,0,0,0-2.24.548,3.275,3.275,0,0,0-1.445,1.44,3.222,3.222,0,0,0-.411,2.153,2.476,2.476,0,0,0,1.381,1.748,2.878,2.878,0,0,0,2.1.356,2.493,2.493,0,0,0,1.627-1.31,2.944,2.944,0,0,0,.373-2.035,3.08,3.08,0,0,0-.934-1.7q2.1-.851,5.095.816a4.921,4.921,0,0,1,2.423,2.552q.538,1.507-.845,3.988l-1.476,2.655a2.373,2.373,0,0,1-2.182,1.2,22.729,22.729,0,0,1-4.385-.478,35.525,35.525,0,0,0-4.648-.565,8.99,8.99,0,0,0-3.577.588,5.429,5.429,0,0,0-2.815,2.584,5.9,5.9,0,0,0-.775,4.474A6.111,6.111,0,0,0,179.787,88.316Z" transform="translate(51.046 19.01)" fill="none" stroke="#fff" stroke-miterlimit="10" stroke-width="0.75"/>
    </g>
  </g>
  <text id="r-2" data-name="r" transform="matrix(0.742, 0.671, -0.671, 0.742, 245.69, 111.944)" fill="#7b6c6c" font-size="46" font-family="PlayfairDisplay-Regular, Playfair Display"><tspan x="0" y="0">r</tspan></text>
  <g id="Group_290" data-name="Group 290">
    <g id="Group_289" data-name="Group 289" clip-path="url(#clip-path)">
      <path id="Path_149" data-name="Path 149" d="M218.555,84.4a5.987,5.987,0,0,0-4.461-1.458,11.617,11.617,0,0,0-5.015,1.345l4.108-4.543a15.949,15.949,0,0,1-4.238-2.909q-1.093-.984-2.156-2.146l-.69.763a3.53,3.53,0,0,1,1.454,2.7,5.226,5.226,0,0,1-1.583,2.994L195.687,92.524a3.66,3.66,0,0,1-2.476,1.493,4.282,4.282,0,0,1-2.652-1.375l-.69.763q3.474,2.878,4.42,3.732,1.015.921,4.625,4.381l.839.825.69-.763a6.96,6.96,0,0,1-2.3-3.266,3.505,3.505,0,0,1,1.14-3.2l6.967-7.7a10.745,10.745,0,0,1,3.381-2.425,10.425,10.425,0,0,1,4.267-1.065,4.94,4.94,0,0,1,3.582,1.225,1.177,1.177,0,0,1,.435,1.053,3.042,3.042,0,0,0-3.01.846,2.385,2.385,0,0,0-.687,1.89,2.641,2.641,0,0,0,.9,1.741,2.512,2.512,0,0,0,2.115.691,3.3,3.3,0,0,0,2.028-1.106,3.565,3.565,0,0,0,.913-2.874A4.616,4.616,0,0,0,218.555,84.4Z" transform="translate(54.953 21.617)" fill="none" stroke="#fff" stroke-miterlimit="10" stroke-width="0.75"/>
    </g>
  </g>
  <text id="i" transform="matrix(0.61, 0.792, -0.792, 0.61, 261.022, 126.144)" fill="#7b6c6c" font-size="46" font-family="PlayfairDisplay-Regular, Playfair Display"><tspan x="0" y="0">i</tspan></text>
  <g id="Group_292" data-name="Group 292">
    <g id="Group_291" data-name="Group 291" clip-path="url(#clip-path)">
      <path id="Path_150" data-name="Path 150" d="M226.729,95.193a15.941,15.941,0,0,1-3.652-3.621q-.9-1.162-1.737-2.5l-.819.628a3.525,3.525,0,0,1,.95,2.919,5.223,5.223,0,0,1-2.093,2.661l-12.153,9.355a3.664,3.664,0,0,1-2.7,1.029,4.3,4.3,0,0,1-2.365-1.827l-.814.627q2.9,3.452,3.77,4.58t3.462,4.816l.815-.627a4.29,4.29,0,0,1-1.162-2.754,3.651,3.651,0,0,1,1.687-2.348Zm7.724-9.163a3.179,3.179,0,1,0,.607,2.316A3.012,3.012,0,0,0,234.453,86.031Z" transform="translate(58.274 24.549)" fill="none" stroke="#fff" stroke-miterlimit="10" stroke-width="0.75"/>
    </g>
  </g>
  <text id="a-3" data-name="a" transform="translate(267.905 137.357) rotate(63.546)" fill="#7b6c6c" font-size="48" font-family="PlayfairDisplay-Regular, Playfair Display"><tspan x="0" y="0">a</tspan></text>
  <g id="Group_294" data-name="Group 294">
    <g id="Group_293" data-name="Group 293" clip-path="url(#clip-path)">
      <path id="Path_151" data-name="Path 151" d="M212.607,116.714a3.752,3.752,0,0,1-.258-3.047,4.649,4.649,0,0,1,2.5-2.45,5.457,5.457,0,0,1,3.178-.651,6.6,6.6,0,0,1,2.616.914,22.514,22.514,0,0,1,2.681,2.032q1.379,1.12,2.121,1.626a3.4,3.4,0,0,0,1.556.594l-8.6,4.278Q214.049,119.609,212.607,116.714Zm-2.714-1.059a9.5,9.5,0,0,0,2.776,3.436,8.549,8.549,0,0,0,4.554,1.509,4.987,4.987,0,0,0-2.436,2.253,3.97,3.97,0,0,0,.407,3.463,5.5,5.5,0,0,0,1.389,1.854,11.884,11.884,0,0,0,2.222,1.329l.505-.854A6.3,6.3,0,0,1,218.14,128a2.326,2.326,0,0,1-.732-.867,1.286,1.286,0,0,1-.041-1.293,3.436,3.436,0,0,1,1.426-1.093l12.2-6.067a17.179,17.179,0,0,0,3.565-2.24,5.535,5.535,0,0,0,1.7-2.682,8.233,8.233,0,0,0-.952-5.983,13.975,13.975,0,0,0-2.25-3.314,10.2,10.2,0,0,0-2.559-2.064,6.957,6.957,0,0,0-2.159-.815,3.272,3.272,0,0,0-2.005.369,3.23,3.23,0,0,0-1.56,1.541,2.483,2.483,0,0,0,.15,2.226,2.889,2.889,0,0,0,1.531,1.482,2.484,2.484,0,0,0,2.082-.16A2.934,2.934,0,0,0,230,105.572a3.087,3.087,0,0,0,.19-1.929q2.213.487,3.741,3.558a4.926,4.926,0,0,1,.552,3.475q-.41,1.543-2.953,2.81l-2.721,1.353a2.37,2.37,0,0,1-2.474-.245,22.854,22.854,0,0,1-3.349-2.878,35.4,35.4,0,0,0-3.509-3.1,9.046,9.046,0,0,0-3.285-1.54,5.417,5.417,0,0,0-3.781.54,5.9,5.9,0,0,0-3.173,3.247A6.116,6.116,0,0,0,209.893,115.655Z" transform="translate(60.487 29.39)" fill="none" stroke="#fff" stroke-miterlimit="10" stroke-width="0.75"/>
    </g>
  </g>
  <text id="_3" data-name=" " transform="translate(279.514 157.109) rotate(73.646)" fill="#7b6c6c" font-size="46" font-family="PlayfairDisplay-Regular, Playfair Display"><tspan x="0" y="0"> </tspan></text>
  <text id="_4" data-name=" " transform="translate(282.808 168.202) rotate(80.575)" fill="#7b6c6c" font-size="46" font-family="PlayfairDisplay-Regular, Playfair Display"><tspan x="0" y="0"> </tspan></text>
  <text id="B-2" data-name="B" transform="translate(283.709 179.02) rotate(92.668)" fill="#7b6c6c" font-size="48" font-family="PlayfairDisplay-Regular, Playfair Display"><tspan x="0" y="0">B</tspan></text>
  <g id="Group_296" data-name="Group 296">
    <g id="Group_295" data-name="Group 295" clip-path="url(#clip-path)">
      <path id="Path_152" data-name="Path 152" d="M220,152.639a6.367,6.367,0,0,1,.427-2.309,1.844,1.844,0,0,1,1.2-1,8.4,8.4,0,0,1,2.607-.174l12.382.578-.19,4.112q-.215,4.551-2.317,6.537a7.8,7.8,0,0,1-5.97,1.806Q219.569,161.793,220,152.639Zm32.552,1.469q-.168,3.621-2.054,5.153t-5.557,1.359a9.634,9.634,0,0,1-5.726-1.861q-2.1-1.692-1.917-5.706l.152-3.279,11.063.516a8.906,8.906,0,0,1,2.629.416,1.934,1.934,0,0,1,1.173,1.108A5.788,5.788,0,0,1,252.547,154.108Zm-15.56,3.4.1,0a11.125,11.125,0,0,0,3.163,5.813,7.989,7.989,0,0,0,5.008,2.024,6.757,6.757,0,0,0,5.7-2.409q2.23-2.569,2.463-7.561.054-1.174.049-2.107l.2-5.289q.18-3.915.424-5.964l-.979-.045a9.841,9.841,0,0,1-.512,2.552,1.761,1.761,0,0,1-1.177,1.048,8.872,8.872,0,0,1-2.705.168l-24.277-1.13a8.846,8.846,0,0,1-2.678-.42,1.76,1.76,0,0,1-1.074-1.154,9.761,9.761,0,0,1-.272-2.588l-.979-.045q.052,2.062-.135,6.076-.143,3.035-.386,6.162-.095.928-.153,2.25a15.07,15.07,0,0,0,.906,6.321,9.359,9.359,0,0,0,3.163,4.219,8.8,8.8,0,0,0,4.878,1.649,7.918,7.918,0,0,0,5.81-2.035Q236,162.851,236.988,157.5Z" transform="translate(63.309 40.635)" fill="none" stroke="#fff" stroke-miterlimit="10" stroke-width="0.75"/>
    </g>
  </g>
  <text id="j-2" data-name="j" transform="translate(283.653 207.84) rotate(104.914)" fill="#7b6c6c" font-size="46" font-family="PlayfairDisplay-Regular, Playfair Display"><tspan x="0" y="0">j</tspan></text>
  <g id="Group_298" data-name="Group 298">
    <g id="Group_297" data-name="Group 297" clip-path="url(#clip-path)">
      <path id="Path_153" data-name="Path 153" d="M254.307,177.633a3.181,3.181,0,1,0-1.467,1.892A3.008,3.008,0,0,0,254.307,177.633ZM211.2,158.04a9.223,9.223,0,0,0-.209,3.925,10.014,10.014,0,0,0,1.306,3.568q2.69,4.367,10.55,6.461l19.46,5.182a16.047,16.047,0,0,1,.647-5.1q.393-1.468.925-2.9l-.994-.264a3.533,3.533,0,0,1-1.738,2.529,5.205,5.205,0,0,1-3.387-.041l-18.323-4.879a12.745,12.745,0,0,1-6.183-3.244,5.365,5.365,0,0,1-1.345-5.049Z" transform="translate(61.032 45.741)" fill="none" stroke="#fff" stroke-miterlimit="10" stroke-width="0.75"/>
    </g>
  </g>
  <text id="a-4" data-name="a" transform="translate(279.235 219.194) rotate(115.659)" fill="#7b6c6c" font-size="48" font-family="PlayfairDisplay-Regular, Playfair Display"><tspan x="0" y="0">a</tspan></text>
  <g id="Group_300" data-name="Group 300">
    <g id="Group_299" data-name="Group 299" clip-path="url(#clip-path)">
      <path id="Path_154" data-name="Path 154" d="M215.156,178.794a3.753,3.753,0,0,1,2.246-2.073,4.643,4.643,0,0,1,3.47.471,5.454,5.454,0,0,1,2.465,2.11,6.571,6.571,0,0,1,.886,2.627,22.571,22.571,0,0,1,.044,3.364q-.041,1.776.021,2.672a3.412,3.412,0,0,0,.484,1.594l-8.656-4.158Q213.758,181.708,215.156,178.794ZM214.324,176a9.486,9.486,0,0,0-1.006,4.3,8.53,8.53,0,0,0,1.605,4.522,5,5,0,0,0-3.273-.54,3.969,3.969,0,0,0-2.483,2.45,5.443,5.443,0,0,0-.61,2.235,12.086,12.086,0,0,0,.313,2.57l.984-.125a6.311,6.311,0,0,1-.206-1.322,2.343,2.343,0,0,1,.235-1.111,1.286,1.286,0,0,1,1-.827,3.422,3.422,0,0,1,1.739.455l12.275,5.9a17.164,17.164,0,0,0,3.959,1.439,5.541,5.541,0,0,0,3.16-.3,8.239,8.239,0,0,0,4.139-4.428,13.9,13.9,0,0,0,1.233-3.81,10.225,10.225,0,0,0,.058-3.288,6.934,6.934,0,0,0-.683-2.2,3.265,3.265,0,0,0-1.522-1.355,3.221,3.221,0,0,0-2.174-.284,2.476,2.476,0,0,0-1.665,1.483,2.876,2.876,0,0,0-.228,2.119,2.483,2.483,0,0,0,1.4,1.546,2.944,2.944,0,0,0,2.054.251,3.084,3.084,0,0,0,1.639-1.034q.973,2.044-.512,5.137a4.914,4.914,0,0,1-2.4,2.569q-1.472.627-4.032-.6l-2.737-1.316a2.372,2.372,0,0,1-1.327-2.106,22.721,22.721,0,0,1,.215-4.407,35.445,35.445,0,0,0,.288-4.673,9.035,9.035,0,0,0-.8-3.537,5.423,5.423,0,0,0-2.749-2.654,5.9,5.9,0,0,0-4.51-.508A6.113,6.113,0,0,0,214.324,176Z" transform="translate(60.362 49.866)" fill="none" stroke="#fff" stroke-miterlimit="10" stroke-width="0.75"/>
    </g>
  </g>
  <text id="r-3" data-name="r" transform="translate(270.977 240.957) rotate(128.768)" fill="#7b6c6c" font-size="46" font-family="PlayfairDisplay-Regular, Playfair Display"><tspan x="0" y="0">r</tspan></text>
  <g id="Group_302" data-name="Group 302">
    <g id="Group_301" data-name="Group 301" clip-path="url(#clip-path)">
      <path id="Path_155" data-name="Path 155" d="M220.271,214.45a5.986,5.986,0,0,0,1.194-4.54,11.6,11.6,0,0,0-1.635-4.927l4.775,3.835a15.992,15.992,0,0,1,2.657-4.4q.917-1.147,2.015-2.277l-.8-.645a3.538,3.538,0,0,1-2.611,1.611,5.211,5.211,0,0,1-3.083-1.407l-11.957-9.6a3.66,3.66,0,0,1-1.638-2.384,4.3,4.3,0,0,1,1.219-2.728l-.8-.645q-2.671,3.636-3.469,4.632-.857,1.068-4.1,4.873l-.772.887.8.643a6.971,6.971,0,0,1,3.127-2.485,3.518,3.518,0,0,1,3.257.952l8.1,6.5a10.764,10.764,0,0,1,2.62,3.235,10.417,10.417,0,0,1,1.311,4.2,4.937,4.937,0,0,1-1.014,3.648,1.175,1.175,0,0,1-1.028.5,3.034,3.034,0,0,0-1.019-2.955,2.38,2.38,0,0,0-1.928-.573,2.639,2.639,0,0,0-1.685,1,2.526,2.526,0,0,0-.566,2.153,3.287,3.287,0,0,0,1.224,1.956,3.56,3.56,0,0,0,2.923.745A4.611,4.611,0,0,0,220.271,214.45Z" transform="translate(58.249 53.931)" fill="none" stroke="#fff" stroke-miterlimit="10" stroke-width="0.75"/>
    </g>
  </g>
  <text id="n-2" data-name="n" transform="translate(257.893 256.702) rotate(143.262)" fill="#7b6c6c" font-size="47" font-family="PlayfairDisplay-Regular, Playfair Display"><tspan x="0" y="0">n</tspan></text>
  <g id="Group_304" data-name="Group 304">
    <g id="Group_303" data-name="Group 303" clip-path="url(#clip-path)">
      <path id="Path_156" data-name="Path 156" d="M205.442,229.2a8.922,8.922,0,0,0,3.111-4.064,9.057,9.057,0,0,0,.018-5.67l3.457,4.633a16.01,16.01,0,0,1,3.675-3.6c.783-.587,1.627-1.153,2.521-1.7l-.614-.825a3.538,3.538,0,0,1-2.933.905,5.214,5.214,0,0,1-2.63-2.134l-9.174-12.29a3.661,3.661,0,0,1-.988-2.717,4.294,4.294,0,0,1,1.862-2.338l-.615-.825q-3.5,2.855-4.6,3.675t-4.514,3.126l.616.825a3.375,3.375,0,0,1,2.474-.9,4.091,4.091,0,0,1,2.227,1.794l6.505,8.718a11.587,11.587,0,0,1,2.026,4.144,7.607,7.607,0,0,1-.025,4.024,5.815,5.815,0,0,1-2.162,3.082q-1.926,1.435-3.418.747a8.989,8.989,0,0,1-3.133-2.888l-8.472-11.348a4.1,4.1,0,0,1-1.086-2.643,3.376,3.376,0,0,1,1.568-2.119l-.615-.825q-3.184,2.619-4.282,3.44t-4.829,3.36l.616.824a4.284,4.284,0,0,1,2.771-1.119,3.656,3.656,0,0,1,2.324,1.719l7.826,10.486a16.027,16.027,0,0,0,2.687,2.945,5.587,5.587,0,0,0,2.526,1.172A6.818,6.818,0,0,0,205.442,229.2Z" transform="translate(52.506 57.474)" fill="none" stroke="#fff" stroke-miterlimit="10" stroke-width="0.75"/>
    </g>
  </g>
  <text id="a-5" data-name="a" transform="matrix(-0.931, 0.364, -0.364, -0.931, 235.276, 272.232)" fill="#7b6c6c" font-size="48" font-family="PlayfairDisplay-Regular, Playfair Display"><tspan x="0" y="0">a</tspan></text>
  <g id="Group_306" data-name="Group 306">
    <g id="Group_305" data-name="Group 305" clip-path="url(#clip-path)">
      <path id="Path_157" data-name="Path 157" d="M178.335,215.262a3.753,3.753,0,0,1,3.056.015,4.639,4.639,0,0,1,2.219,2.71,5.465,5.465,0,0,1,.367,3.224,6.6,6.6,0,0,1-1.144,2.526,22.554,22.554,0,0,1-2.262,2.489q-1.238,1.275-1.808,1.97a3.439,3.439,0,0,0-.729,1.5l-3.5-8.943Q175.324,216.441,178.335,215.262Zm1.293-2.61a9.529,9.529,0,0,0-3.667,2.462,8.559,8.559,0,0,0-1.908,4.4,4.987,4.987,0,0,0-2.027-2.627,3.969,3.969,0,0,0-3.487.1,5.478,5.478,0,0,0-1.969,1.218,12.061,12.061,0,0,0-1.522,2.1l.8.579a6.427,6.427,0,0,1,.75-1.109,2.346,2.346,0,0,1,.928-.652,1.281,1.281,0,0,1,1.292.072,3.419,3.419,0,0,1,.962,1.519l4.964,12.684a17.053,17.053,0,0,0,1.915,3.75,5.529,5.529,0,0,0,2.518,1.934,8.237,8.237,0,0,0,6.046-.419,13.853,13.853,0,0,0,3.5-1.948,10.149,10.149,0,0,0,2.282-2.366,6.936,6.936,0,0,0,1-2.076,3.266,3.266,0,0,0-.19-2.031,3.219,3.219,0,0,0-1.4-1.689,2.478,2.478,0,0,0-2.229-.049,2.89,2.89,0,0,0-1.612,1.394,2.48,2.48,0,0,0-.023,2.089,2.928,2.928,0,0,0,1.331,1.583,3.079,3.079,0,0,0,1.9.361q-.683,2.16-3.875,3.409a4.931,4.931,0,0,1-3.51.242q-1.5-.545-2.538-3.19l-1.108-2.829a2.375,2.375,0,0,1,.463-2.443,22.971,22.971,0,0,1,3.164-3.08,35.07,35.07,0,0,0,3.394-3.222,8.978,8.978,0,0,0,1.825-3.135,5.411,5.411,0,0,0-.2-3.813,5.9,5.9,0,0,0-2.955-3.449A6.113,6.113,0,0,0,179.629,212.652Z" transform="translate(47.769 61.365)" fill="none" stroke="#fff" stroke-miterlimit="10" stroke-width="0.75"/>
    </g>
  </g>
  <text id="d" transform="translate(214.334 280.953) rotate(173.65)" fill="#7b6c6c" font-size="48" font-family="PlayfairDisplay-Regular, Playfair Display"><tspan x="0" y="0">d</tspan></text>
  <g id="Group_308" data-name="Group 308">
    <g id="Group_307" data-name="Group 307" clip-path="url(#clip-path)">
      <path id="Path_158" data-name="Path 158" d="M158.674,219.387a5.457,5.457,0,0,1,5.3,2.394q2.035,2.756,2.634,8.606.71,5.934-.8,9.234a5.567,5.567,0,0,1-4.526,3.635,5.292,5.292,0,0,1-5.872-3.144L153.795,225.6a8.018,8.018,0,0,1,1.634-4.372A4.81,4.81,0,0,1,158.674,219.387Zm-9.381,5.63,3.658,32.871a15.961,15.961,0,0,1,4.989-1.246q1.462-.162,3.035-.19l-.115-1.024a3.533,3.533,0,0,1-2.986-.7,5.216,5.216,0,0,1-1.191-3.171l-1.052-9.449a5.711,5.711,0,0,0,2.7,1.894,8.068,8.068,0,0,0,3.462.33,10.355,10.355,0,0,0,8.852-7.074,16.264,16.264,0,0,0,.681-7.4q-.675-6.483-3.7-9.547a8.88,8.88,0,0,0-7.7-2.544,7.71,7.71,0,0,0-4.157,1.621,6.953,6.953,0,0,0-2.259,3.628l-.482-4.334a15.99,15.99,0,0,1-4.99,1.244q-1.509.17-3.035.191l.115,1.023a3.523,3.523,0,0,1,2.986.7A5.2,5.2,0,0,1,149.294,225.017Z" transform="translate(41.967 63.006)" fill="none" stroke="#fff" stroke-miterlimit="10" stroke-width="0.75"/>
    </g>
  </g>
  <text id="o" transform="translate(187.898 284.046) rotate(-170.667)" fill="#7b6c6c" font-size="48" font-family="PlayfairDisplay-Regular, Playfair Display"><tspan x="0" y="0">o</tspan></text>
  <g id="Group_310" data-name="Group 310">
    <g id="Group_309" data-name="Group 309" clip-path="url(#clip-path)">
      <path id="Path_159" data-name="Path 159" d="M134.51,242.739a5.2,5.2,0,0,1-4.106-3.729q-1.2-3.251-.178-9.489t3.2-8.909a5.118,5.118,0,0,1,9.186,1.511q1.209,3.226.183,9.464t-3.207,8.932A5.2,5.2,0,0,1,134.51,242.739Zm-.16.967a10.474,10.474,0,0,0,8.491-1.957q3.557-2.768,4.646-9.391T146.086,222a11.536,11.536,0,0,0-15.906-2.615q-3.553,2.743-4.645,9.366t1.4,10.385A10.475,10.475,0,0,0,134.35,243.707Z" transform="translate(36.237 62.883)" fill="none" stroke="#fff" stroke-miterlimit="10" stroke-width="0.75"/>
    </g>
  </g>
  <text id="t" transform="translate(163.023 279.602) rotate(-158.031)" fill="#7b6c6c" font-size="48" font-family="PlayfairDisplay-Regular, Playfair Display"><tspan x="0" y="0">t</tspan></text>
  <g id="Group_312" data-name="Group 312">
    <g id="Group_311" data-name="Group 311" clip-path="url(#clip-path)">
      <path id="Path_160" data-name="Path 160" d="M111.129,244.9a15.233,15.233,0,0,1,4.345,1.013l2.8-6.953,4.363,1.76.366-.909-4.362-1.76,6.14-15.223a16.977,16.977,0,0,0,1.19-4.063,5.734,5.734,0,0,0-.4-3.012,5.168,5.168,0,0,0-1.314-1.852,8.126,8.126,0,0,0-2.4-1.39q-4.77-1.924-8.437,3.888l.817.593a10.068,10.068,0,0,1,3.185-3.047,3.339,3.339,0,0,1,2.866-.164,2.842,2.842,0,0,1,1.792,1.779,5.006,5.006,0,0,1-.442,3.255L114.556,236.4l-6.726-2.713-.366.909,6.726,2.712Z" transform="translate(31.103 61.367)" fill="none" stroke="#fff" stroke-miterlimit="10" stroke-width="0.75"/>
    </g>
  </g>
  <text id="t-2" data-name="t" transform="matrix(-0.859, -0.512, 0.512, -0.859, 149.672, 274.471)" fill="#7b6c6c" font-size="48" font-family="PlayfairDisplay-Regular, Playfair Display"><tspan x="0" y="0">t</tspan></text>
  <g id="Group_314" data-name="Group 314">
    <g id="Group_313" data-name="Group 313" clip-path="url(#clip-path)">
      <path id="Path_161" data-name="Path 161" d="M97.431,237.833a15.273,15.273,0,0,1,4.139,1.667l3.837-6.439,4.04,2.407.5-.841-4.04-2.409,8.4-14.1a16.907,16.907,0,0,0,1.8-3.833,5.72,5.72,0,0,0,.072-3.038,5.168,5.168,0,0,0-1.015-2.03,8.133,8.133,0,0,0-2.157-1.742q-4.418-2.632-8.932,2.549l.716.712a10.027,10.027,0,0,1,3.614-2.523,3.342,3.342,0,0,1,2.859.277,2.847,2.847,0,0,1,1.5,2.033,5.013,5.013,0,0,1-.936,3.149l-9.707,16.291L95.89,226.25l-.5.842,6.228,3.711Z" transform="translate(27.608 59.792)" fill="none" stroke="#fff" stroke-miterlimit="10" stroke-width="0.75"/>
    </g>
  </g>
  <text id="i-2" data-name="i" transform="translate(134.594 267.734) rotate(-140.485)" fill="#7b6c6c" font-size="46" font-family="PlayfairDisplay-Regular, Playfair Display"><tspan x="0" y="0">i</tspan></text>
  <g id="Group_316" data-name="Group 316">
    <g id="Group_315" data-name="Group 315" clip-path="url(#clip-path)">
      <path id="Path_162" data-name="Path 162" d="M88.846,221.623a16.041,16.041,0,0,1,4.367,2.713q1.137.936,2.251,2.046l.655-.793a3.531,3.531,0,0,1-1.576-2.633,5.217,5.217,0,0,1,1.445-3.064l9.758-11.832a3.666,3.666,0,0,1,2.4-1.605,4.294,4.294,0,0,1,2.713,1.253l.655-.793q-3.6-2.719-4.7-3.622t-4.45-3.922l-.655.793a4.284,4.284,0,0,1,1.748,2.427,3.658,3.658,0,0,1-1.119,2.664Zm-5.484,10.656a3.182,3.182,0,1,0-1.109-2.121A3.013,3.013,0,0,0,83.362,232.278Z" transform="translate(23.801 57.703)" fill="none" stroke="#fff" stroke-miterlimit="10" stroke-width="0.75"/>
    </g>
  </g>
  <text id="r-4" data-name="r" transform="translate(123.873 259.401) rotate(-130.037)" fill="#7b6c6c" font-size="46" font-family="PlayfairDisplay-Regular, Playfair Display"><tspan x="0" y="0">r</tspan></text>
  <g id="Group_318" data-name="Group 318">
    <g id="Group_317" data-name="Group 317" clip-path="url(#clip-path)">
      <path id="Path_163" data-name="Path 163" d="M74.337,206.2a5.986,5.986,0,0,0,4.222,2.053,11.586,11.586,0,0,0,5.153-.647l-4.69,3.94a15.972,15.972,0,0,1,3.8,3.46q.946,1.126,1.843,2.42l.787-.663a3.531,3.531,0,0,1-1.072-2.875,5.208,5.208,0,0,1,1.978-2.748L98.1,201.271a3.661,3.661,0,0,1,2.654-1.142,4.289,4.289,0,0,1,2.442,1.724l.788-.661q-3.048-3.327-3.87-4.3-.882-1.05-3.986-4.972l-.718-.931-.788.661a6.961,6.961,0,0,1,1.83,3.55,3.51,3.51,0,0,1-1.565,3.011l-7.952,6.683a10.782,10.782,0,0,1-3.681,1.941,10.443,10.443,0,0,1-4.371.472,4.932,4.932,0,0,1-3.382-1.7,1.172,1.172,0,0,1-.286-1.1,3.042,3.042,0,0,0,3.1-.427,2.386,2.386,0,0,0,.937-1.779,2.645,2.645,0,0,0-.658-1.848,2.516,2.516,0,0,0-2-.974,3.3,3.3,0,0,0-2.159.82,3.565,3.565,0,0,0-1.3,2.722A4.623,4.623,0,0,0,74.337,206.2Z" transform="translate(21.167 55.277)" fill="none" stroke="#fff" stroke-miterlimit="10" stroke-width="0.75"/>
      <path id="Path_164" data-name="Path 164" d="M158.73,147.741a9.671,9.671,0,1,1-9.671-9.671,9.671,9.671,0,0,1,9.671,9.671" transform="translate(40.343 39.961)" fill="#ffc79f"/>
    </g>
  </g>
</svg>
