<svg xmlns="http://www.w3.org/2000/svg" xmlns:xlink="http://www.w3.org/1999/xlink" width="1924.998" height="1080" viewBox="0 0 1924.998 1080">
  <defs>
    <clipPath id="clip-path">
      <rect id="Rectangle_35" data-name="Rectangle 35" width="156.805" height="168.787" fill="none"/>
    </clipPath>
    <clipPath id="clip-path-2">
      <rect id="Rectangle_34" data-name="Rectangle 34" width="151.897" height="158.655" fill="none"/>
    </clipPath>
    <clipPath id="clip-path-3">
      <rect id="Rectangle_36" data-name="Rectangle 36" width="216.461" height="182.308" fill="none"/>
    </clipPath>
    <clipPath id="clip-path-4">
      <rect id="Rectangle_169" data-name="Rectangle 169" width="312.362" height="312.364" fill="none"/>
    </clipPath>
    <clipPath id="clip-path-29">
      <rect id="Rectangle_144" data-name="Rectangle 144" width="277.26" height="277.262" fill="none"/>
    </clipPath>
  </defs>
  <g id="Group_436" data-name="Group 436" transform="translate(-14902 -2594)">
    <g id="Path_194" data-name="Path 194" transform="translate(14902 2594)" fill="#fff">
      <path d="M 1894 1079.5 L 27 1079.5 C 23.4223804473877 1079.5 19.951904296875 1078.799560546875 16.68523788452148 1077.417602539062 C 13.5295238494873 1076.083129882812 10.69547653198242 1074.172119140625 8.261666297912598 1071.73828125 C 5.82785701751709 1069.304565429688 3.91690468788147 1066.470458984375 2.582381010055542 1063.314819335938 C 1.200476169586182 1060.048095703125 0.5 1056.57763671875 0.5 1053 L 0.5 27 C 0.5 23.4223804473877 1.200476169586182 19.951904296875 2.582381010055542 16.68523788452148 C 3.91690468788147 13.5295238494873 5.82785701751709 10.69547653198242 8.261666297912598 8.261666297912598 C 10.69547653198242 5.82785701751709 13.5295238494873 3.91690468788147 16.68523788452148 2.582381010055542 C 19.951904296875 1.200476169586182 23.4223804473877 0.5 27 0.5 L 1894 0.5 C 1897.57763671875 0.5 1901.048095703125 1.200476169586182 1904.314819335938 2.582381010055542 C 1907.470458984375 3.91690468788147 1910.304565429688 5.82785701751709 1912.73828125 8.261666297912598 C 1915.172119140625 10.69547653198242 1917.083129882812 13.5295238494873 1918.417602539062 16.68523788452148 C 1919.799560546875 19.951904296875 1920.5 23.4223804473877 1920.5 27 L 1920.5 1053 C 1920.5 1056.57763671875 1919.799560546875 1060.048095703125 1918.417602539062 1063.314819335938 C 1917.083129882812 1066.470458984375 1915.172119140625 1069.304565429688 1912.73828125 1071.73828125 C 1910.304565429688 1074.172119140625 1907.470458984375 1076.083129882812 1904.314819335938 1077.417602539062 C 1901.048095703125 1078.799560546875 1897.57763671875 1079.5 1894 1079.5 Z" stroke="none"/>
      <path d="M 27 1 C 23.489501953125 1 20.084716796875 1.6873779296875 16.8800048828125 3.0428466796875 C 13.7840576171875 4.3524169921875 11.0032958984375 6.2271728515625 8.615234375 8.615234375 C 6.2271728515625 11.0032958984375 4.3524169921875 13.7840576171875 3.0428466796875 16.8800048828125 C 1.6873779296875 20.084716796875 1 23.489501953125 1 27 L 1 1053 C 1 1056.510498046875 1.6873779296875 1059.915283203125 3.0428466796875 1063.119995117188 C 4.3524169921875 1066.215942382812 6.2271728515625 1068.996704101562 8.615234375 1071.384765625 C 11.0032958984375 1073.772827148438 13.7840576171875 1075.647583007812 16.8800048828125 1076.957153320312 C 20.084716796875 1078.312622070312 23.489501953125 1079 27 1079 L 1894 1079 C 1897.510498046875 1079 1900.915283203125 1078.312622070312 1904.119995117188 1076.957153320312 C 1907.215942382812 1075.647583007812 1909.996704101562 1073.772827148438 1912.384765625 1071.384765625 C 1914.772827148438 1068.996704101562 1916.647583007812 1066.215942382812 1917.957153320312 1063.119995117188 C 1919.312622070312 1059.915283203125 1920 1056.510498046875 1920 1053 L 1920 27 C 1920 23.489501953125 1919.312622070312 20.084716796875 1917.957153320312 16.8800048828125 C 1916.647583007812 13.7840576171875 1914.772827148438 11.0032958984375 1912.384765625 8.615234375 C 1909.996704101562 6.2271728515625 1907.215942382812 4.3524169921875 1904.119995117188 3.0428466796875 C 1900.915283203125 1.6873779296875 1897.510498046875 1 1894 1 L 27 1 M 27 0 L 1894 0 C 1908.91162109375 0 1921 12.08837890625 1921 27 L 1921 1053 C 1921 1067.91162109375 1908.91162109375 1080 1894 1080 L 27 1080 C 12.08837890625 1080 0 1067.91162109375 0 1053 L 0 27 C 0 12.08837890625 12.08837890625 0 27 0 Z" stroke="none" fill="#707070"/>
    </g>
    <g id="Group_428" data-name="Group 428" transform="translate(15916.124 2828.876) rotate(90)">
      <rect id="Rectangle_30" data-name="Rectangle 30" width="110.248" height="110.248" rx="11" transform="translate(244.748 446.124) rotate(180)" fill="#c0d2e6"/>
      <rect id="Rectangle_31" data-name="Rectangle 31" width="110.248" height="110.248" rx="11" transform="translate(244.748 595.124) rotate(180)" fill="#dca98a"/>
      <rect id="Rectangle_32" data-name="Rectangle 32" width="110.248" height="110.248" rx="11" transform="translate(244.748 744.124) rotate(180)" fill="#e7cfc0"/>
      <rect id="Rectangle_33" data-name="Rectangle 33" width="110.248" height="110.248" rx="11" transform="translate(244.748 893.124) rotate(180)" fill="#f0e4de"/>
      <rect id="Rectangle_25" data-name="Rectangle 25" width="110.248" height="110.248" rx="11" transform="translate(244.748 297.124) rotate(180)" fill="#587acd"/>
    </g>
    <text id="Styletile" transform="translate(15023 2783)" fill="#776d6c" font-size="97" font-family="PlayfairDisplay-Regular, Playfair Display"><tspan x="0" y="0">Styletile</tspan></text>
    <g id="Group_429" data-name="Group 429" transform="translate(15017.006 3251.364) rotate(-22)">
      <g id="Group_4" data-name="Group 4" clip-path="url(#clip-path)">
        <path id="Path_4" data-name="Path 4" d="M112.818,53.238c2.572-6.986,6.989-18.456,12.57-30.316.432-.918,3.245-5.788,8.873-15.528C137.445,1.884,138.6-.044,140.176,0c2.3.066,4.255,4.288,7.394,15.528,4.711,16.864,5.915,25.879,5.915,25.879,2.676,20.031,4.014,30.047,2.958,42.146A124.918,124.918,0,0,1,146.831,122c-3.528,8.185-6.769,15.7-14.049,23.661a71.28,71.28,0,0,1-26.619,17.746c-6.215,2.382-23.152,8.871-42.886,2.958-15.766-4.725-25.011-14.878-30.316-20.7-13.289-14.6-18.076-30.617-22.182-44.364C6.738,87.771,9.315,89.295,4.865,74.681,2.27,66.161-2.1,52.069,1.168,48.062c2.768-3.391,13.711-2.884,53.237,19.225.429-1.075,1.265-3.205,2.218-5.915,8.6-24.432,6.542-38.489,17.746-45.1a7.159,7.159,0,0,1,1.479-.739c11.4-3.819,30.418,26.7,36.97,37.71" transform="translate(0 0)" fill="#dca98a"/>
        <path id="Path_5" data-name="Path 5" d="M1.127.24C3.031-.948,7.27,2.554,9.26,4.676c3.254,3.469,6.168,9.291,4.436,11.091-1.61,1.673-7.213-.15-10.352-3.7C-.2,8.061-.9,1.507,1.127.24" transform="translate(71.024 132.115)" fill="#fff"/>
        <path id="Path_6" data-name="Path 6" d="M4.013.046c2.6-.634,5.4,5.415,6.482,8.833,1.772,5.59,2.042,13.89-.67,15.338-2.52,1.346-7.583-3.242-9.2-8.877C-1.191,8.97,1.243.722,4.013.046" transform="translate(88.143 115.956)" fill="#fff"/>
        <path id="Path_7" data-name="Path 7" d="M7.977.086C10.1.821,10.037,6.32,9.637,9.2,8.984,13.913,6.286,19.838,3.8,19.622c-2.313-.2-4.416-5.705-3.63-10.376C1.057,3.966,5.715-.7,7.977.086" transform="translate(108.294 118.379)" fill="#fff"/>
      </g>
    </g>
    <g id="Rectangle_245" data-name="Rectangle 245" transform="translate(15967 3445)" fill="#5f79c7" stroke="#707070" stroke-width="1">
      <rect width="292" height="99" rx="19" stroke="none"/>
      <rect x="0.5" y="0.5" width="291" height="98" rx="18.5" fill="none"/>
    </g>
    <text id="Click_here" data-name="Click here" transform="translate(16022.5 3510)" fill="#e3d0c2" font-size="40" font-family="PlayfairDisplay-Regular, Playfair Display"><tspan x="0" y="0">click here</tspan></text>
    <g id="Group_430" data-name="Group 430" transform="translate(15279.496 3220.915)">
      <g id="Group_2" data-name="Group 2" clip-path="url(#clip-path-2)">
        <path id="Path_2" data-name="Path 2" d="M29.075,102.97C22.088,84.445,2.693,84.045.238,66-.832,58.134,1.976,51.763,3.2,48.993c4.75-10.781,15.449-20.6,27.358-21.443,11.263-.8,14.233,7.222,22.922,5.176C66.282,29.711,64.356,11.221,80.833,3.15,90.787-1.726,101,.366,103.755.932c3.462.71,16.356,3.352,22.182,13.309,8.012,13.692-6.318,25.876,1.479,41.407,4.365,8.695,9.762,6.684,17.006,18.485,2.6,4.243,8.211,13.378,7.394,25.14-.946,13.615-10.386,29.116-22.922,31.795-12.673,2.708-20.93-9.312-29.576-4.436-5.783,3.261-3.209,9.268-9.612,17.746a37.485,37.485,0,0,1-33.273,14.049c-1.525-.176-17.071-2.2-25.14-14.788-8.9-13.878,4.218-23.6-2.218-40.667" transform="translate(0)" fill="#e7cfc0"/>
        <path id="Path_3" data-name="Path 3" d="M108.807,104.5a9.243,9.243,0,1,1-9.243-9.243,9.242,9.242,0,0,1,9.243,9.243" transform="translate(-23.537 -24.824)" fill="#fff"/>
      </g>
    </g>
    <g id="Group_431" data-name="Group 431" transform="translate(15699.623 3408.035) rotate(-172)">
      <g id="Group_6" data-name="Group 6" clip-path="url(#clip-path-3)">
        <path id="Path_8" data-name="Path 8" d="M1.666,83.33c7.513,6.073,16.189,7.482,21.106,3.888,3.087-2.257,4.131-6.076,4.443-7.22,1.675-6.129-.816-11.019-2.222-15.552-3.792-12.234-1.047-26.318,5-34.991,1.6-2.289,7.31-10.486,15-10,8.618.549,13.4,11.617,13.885,12.774,2.544,6.1,2.036,12.216,1.666,16.663-.631,7.59-2.858,12.736,0,18.884.685,1.475,1.231,2.609,2.222,2.777,3.411.578,6.892-11.2,13.885-25.549,6.084-12.485,13.69-24.586,24.438-34.991C109.819,1.56,114.87-.2,119.413.017c7.658.37,12.484,6.3,12.774,6.665,4.763,6.039,3.723,13.358,3.332,16.107-.989,6.959-4.547,11.86-11.664,21.662-6.226,8.575-11.052,13.313-9.442,18.329a6.9,6.9,0,0,0,2.222,3.332c5.838,4.48,17.642-5.758,39.99-15a97.217,97.217,0,0,1,31.1-7.776c4.355-.292,11.573-.431,18.884,3.332,2.894,1.49,7,3.678,8.887,8.331a15.243,15.243,0,0,1,0,10.553c-3.352,9.374-16.5,12.946-24.438,15-40.379,10.43-60.81,11.165-61.1,15-.258,3.466,15.879,10.622,31.658,8.887,6.558-.721,9.563-2.594,17.773-2.222,4.822.219,12.1.643,18.884,5.554,2.695,1.952,7.693,5.571,8.887,11.664,1.522,7.769-3.905,15.659-9.442,19.439-8.767,5.985-19.807,3.031-34.436-1.111-20.61-5.836-28.622-13.07-53.319-18.884-9.8-2.307-13.365-2.3-13.885-1.111-1.024,2.347,9.634,9.509,21.106,17.218,15.227,10.233,20.75,12.435,23.883,19.995.786,1.9,3.432,8.281.555,14.441-2.8,5.989-9.077,8.045-10,8.331-10.431,3.241-21.512-5.3-28.326-10.553C89.8,156.784,85.729,146.922,69.982,138.315c-2.152-1.176-6.627-3.48-7.776-2.222-1.083,1.186,1.463,4.8,7.22,15,6.243,11.055,7.4,14.16,6.665,17.773a16.53,16.53,0,0,1-3.888,7.22c-2.109,2.508-5.692,5.519-8.887,6.11-8.42,1.556-17.6-13.071-20.55-17.773-12.364-19.7-8.173-29.857-18.485-40.624C20.3,119.635,13.2,114.4,0,112.211" transform="translate(0 0)" fill="#c0d2e6"/>
      </g>
    </g>
    <text id="_F0E4DE" data-name="#F0E4DE" transform="translate(15023 3109.624)" fill="#756d6c" font-size="25" font-family="OpenSans, Open Sans"><tspan x="0" y="0">#F0E4DE</tspan></text>
    <text id="_E7CFC0" data-name="#E7CFC0" transform="translate(15174 3109.624)" fill="#756d6c" font-size="25" font-family="OpenSans, Open Sans"><tspan x="0" y="0">#E7CFC0</tspan></text>
    <text id="_DCA98A" data-name="#DCA98A" transform="translate(15316 3109.624)" fill="#756d6c" font-size="25" font-family="OpenSans, Open Sans"><tspan x="0" y="0">#DCA98A</tspan></text>
    <text id="_F0E4DE-2" data-name="#F0E4DE" transform="translate(15473 3109.624)" fill="#756d6c" font-size="25" font-family="OpenSans, Open Sans"><tspan x="0" y="0">#F0E4DE</tspan></text>
    <text id="_587ACD" data-name="#587ACD" transform="translate(15624 3109.624)" fill="#756d6c" font-size="25" font-family="OpenSans, Open Sans"><tspan x="0" y="0">#587ACD</tspan></text>
    <text id="Farver" transform="translate(15019 2924)" fill="#756d6c" font-size="38" font-family="PlayfairDisplay-Regular, Playfair Display"><tspan x="0" y="0">Farver</tspan></text>
    <line id="Line_5" data-name="Line 5" y2="208" transform="translate(15867 2909)" fill="none" stroke="#707070" stroke-width="1"/>
    <text id="Fonte" transform="translate(15944 2924)" fill="#796d6c" font-size="38" font-family="PlayfairDisplay-Regular, Playfair Display"><tspan x="0" y="0">Fonte</tspan></text>
    <text id="H1_headline_sample" data-name="H1 headline sample" transform="translate(15944 2999)" fill="#796d6c" font-size="57" font-family="PlayfairDisplay-Regular, Playfair Display"><tspan x="0" y="0">H1 Headline Sample</tspan></text>
    <text id="H2_sublime_sample_with_text" data-name="H2 sublime sample with text" transform="translate(15945 3096)" fill="#796d6c" font-size="30" font-family="OpenSans, Open Sans"><tspan x="0" y="0">H2 sublime sample with text</tspan></text>
    <text id="Lorem_ipsum_dolor_sit_amet_consectetur_adipiscing_elit._commodo_auctor_libero_in_interdum_lectus._Ut_eleifend_dui_ac_pretium_dictum_nulla_felis_molestie_turpis_vel_rutrum_tellus_nulla_a_sem._Sed_lobortis_" data-name="Lorem ipsum dolor sit amet, consectetur adipiscing elit.
commodo, auctor libero in, interdum lectus. Ut eleifend, 
dui ac pretium dictum, nulla felis molestie turpis, vel rutrum 
tellus nulla a sem. Sed lobortis 
" transform="translate(15945 3177)" fill="#796d6c" font-size="25" font-family="OpenSans, Open Sans"><tspan x="0" y="0">lorem ipsum dolor sit amet, consectetur adipiscing elit.</tspan><tspan x="0" y="34">commodo, auctor libero in, interdum lectus. ut eleifend, </tspan><tspan x="0" y="68">dui ac pretium dictum, nulla felis molestie turpis, vel rutrum </tspan><tspan x="0" y="102">tellus nulla a sem. sed lobortis </tspan><tspan x="0" y="136"></tspan></text>
    <text id="Playfair_display" data-name="Playfair display" transform="translate(15945 3028)" fill="#796d6c" font-size="21" font-family="PlayfairDisplay-Regular, Playfair Display"><tspan x="0" y="0">Playfair Display</tspan></text>
    <text id="Open_sans" data-name="Open sans" transform="translate(15944 3126)" fill="#796d6c" font-size="21" font-family="OpenSans, Open Sans"><tspan x="0" y="0">Open Sans</tspan></text>
    <line id="Line_6" data-name="Line 6" x2="629" transform="translate(16059 3351)" fill="none" stroke="#707070" stroke-width="1"/>
    <g id="Group_432" data-name="Group 432" transform="translate(16308 2434)">
      <g id="Rectangle_197" data-name="Rectangle 197" transform="translate(198 974)" fill="#6877bc" stroke="#707070" stroke-width="1">
        <rect width="224" height="224" rx="27" stroke="none"/>
        <rect x="0.5" y="0.5" width="223" height="223" rx="26.5" fill="none"/>
      </g>
      <text id="Tema_4" data-name="Tema 4" transform="translate(261 1100)" fill="#e3d0c2" font-size="34" font-family="PlayfairDisplay-Regular, Playfair Display"><tspan x="0" y="0">tema 4</tspan></text>
    </g>
    <g id="Group_433" data-name="Group 433" transform="translate(16514.637 2596.136)">
      <g id="Group_270" data-name="Group 270">
        <g id="Group_269" data-name="Group 269" clip-path="url(#clip-path-4)">
          <path id="Path_139" data-name="Path 139" d="M133.919,107.586c5.943-1.888,4.362-9.873,11.166-16.058,6.892-6.263,19.535-8.087,27.438-2.78,7.261,4.877,8.751,14.585,9.312,18.246,1.651,10.774-2.658,16.941.977,20.157,2.745,2.43,5.789-.569,13.932.72,2.967.47,10.786,1.709,15.736,8,5.2,6.609,4.08,14.785,3.822,16.671-1.272,9.283-7.643,15.131-10.952,18.167-8.3,7.618-15.667,2.22-21.519,8.578-7.317,7.948.567,16.592-5.982,25.126-6.487,8.452-19.861,14.571-29.855,10.489-6.507-2.658-12.643-10.074-14.589-17.712-1.065-4.182-.94-8.693-3.073-9.283-1.7-.47-2.993,2.049-6.011,3.808-6,3.5-13.536.9-14.88.441-8.83-3.04-15.446-12.973-15.016-21.933.549-11.478,12.391-15.681,10.31-24.5-1.226-5.2-5.581-4.751-8.67-11.916-.5-1.166-4.438-10.687.186-19.208,4.6-8.486,15.455-11.847,23.416-10.9,7.573.9,9.642,5.351,14.253,3.886" transform="translate(5.705 5.196)" fill="#6478c1"/>
        </g>
      </g>
      <text id="B" transform="matrix(-0.209, -0.978, 0.978, -0.209, 83.034, 184.67)" fill="#7b6c6c" font-size="39" font-family="PlayfairDisplay-Regular, Playfair Display"><tspan x="0" y="0">B</tspan></text>
      <g id="Group_272" data-name="Group 272">
        <g id="Group_271" data-name="Group 271" clip-path="url(#clip-path-4)">
          <path id="Path_140" data-name="Path 140" d="M78.069,163.757a5.229,5.229,0,0,1,.143,1.927,1.517,1.517,0,0,1-.746,1.044,6.882,6.882,0,0,1-2.039.683l-9.974,2.127-.706-3.311q-.781-3.666.477-5.685a6.422,6.422,0,0,1,4.373-2.686Q76.5,156.385,78.069,163.757Zm-26.206,5.629a5.519,5.519,0,0,1,.559-4.529,6.617,6.617,0,0,1,4.138-2.242,7.922,7.922,0,0,1,4.945.285q2.027.907,2.716,4.139l.564,2.642-8.91,1.9a7.321,7.321,0,0,1-2.179.216,1.59,1.59,0,0,1-1.167-.637A4.763,4.763,0,0,1,51.863,169.386Zm11.673-5.95-.078.017a9.134,9.134,0,0,0-3.731-3.965,6.558,6.558,0,0,0-4.406-.564,5.561,5.561,0,0,0-4.036,3.106,10,10,0,0,0-.38,6.531q.2.947.4,1.686l.946,4.249q.671,3.155.908,4.835l.787-.168a7.97,7.97,0,0,1-.124-2.136,1.452,1.452,0,0,1,.717-1.082,7.269,7.269,0,0,1,2.117-.7l19.553-4.168a7.236,7.236,0,0,1,2.218-.227,1.449,1.449,0,0,1,1.1.695,7.93,7.93,0,0,1,.756,2l.789-.168q-.473-1.631-1.159-4.863-.523-2.444-.981-4.984c-.08-.5-.2-1.113-.348-1.821a12.384,12.384,0,0,0-2.042-4.84,7.686,7.686,0,0,0-3.4-2.7,7.22,7.22,0,0,0-4.225-.294,6.51,6.51,0,0,0-4.2,2.831Q63.2,158.974,63.536,163.435Z" transform="translate(3.068 9.326)" fill="none" stroke="#fff" stroke-miterlimit="10" stroke-width="0.75"/>
        </g>
      </g>
      <text id="j" transform="translate(74.688 161.352) rotate(-89.837)" fill="#7b6c6c" font-size="35" font-family="PlayfairDisplay-Regular, Playfair Display"><tspan x="0" y="0">j</tspan></text>
      <g id="Group_274" data-name="Group 274">
        <g id="Group_273" data-name="Group 273" clip-path="url(#clip-path-4)">
          <path id="Path_141" data-name="Path 141" d="M46.534,147.051a2.612,2.612,0,1,0,.77-1.812A2.475,2.475,0,0,0,46.534,147.051Zm38.393,6.559a7.6,7.6,0,0,0-.657-3.166,8.22,8.22,0,0,0-1.787-2.564q-3.055-2.912-9.744-2.93L56.173,144.9a13.18,13.18,0,0,1,.552,4.194q0,1.249-.128,2.5l.847,0a2.907,2.907,0,0,1,.853-2.376,4.288,4.288,0,0,1,2.7-.677l15.6.045a10.48,10.48,0,0,1,5.6,1.286,4.413,4.413,0,0,1,2.127,3.735Z" transform="translate(2.824 8.767)" fill="none" stroke="#fff" stroke-miterlimit="10" stroke-width="0.75"/>
        </g>
      </g>
      <text id="a" transform="translate(78.198 151.446) rotate(-79.196)" fill="#7b6c6c" font-size="39" font-family="PlayfairDisplay-Regular, Playfair Display"><tspan x="0" y="0">a</tspan></text>
      <g id="Group_276" data-name="Group 276">
        <g id="Group_275" data-name="Group 275" clip-path="url(#clip-path-4)">
          <path id="Path_142" data-name="Path 142" d="M76.462,135.739a3.079,3.079,0,0,1-1.348,2.123,3.817,3.817,0,0,1-2.859.356,4.488,4.488,0,0,1-2.4-1.156,5.392,5.392,0,0,1-1.259-1.9,18.453,18.453,0,0,1-.742-2.664q-.344-1.419-.58-2.12a2.814,2.814,0,0,0-.72-1.165l7.759,1.481Q76.96,133.127,76.462,135.739Zm1.252,2.045a7.834,7.834,0,0,0-.107-3.632,7.031,7.031,0,0,0-2.23-3.256,4.109,4.109,0,0,0,2.716-.262,3.255,3.255,0,0,0,1.456-2.47,4.472,4.472,0,0,0,.014-1.906,9.745,9.745,0,0,0-.791-1.977l-.756.308a5.124,5.124,0,0,1,.443,1.008,1.913,1.913,0,0,1,.049.932,1.059,1.059,0,0,1-.617.868,2.809,2.809,0,0,1-1.479,0l-11.007-2.1a14.1,14.1,0,0,0-3.448-.31,4.549,4.549,0,0,0-2.45.908,6.762,6.762,0,0,0-2.357,4.392,11.413,11.413,0,0,0-.176,3.289,8.368,8.368,0,0,0,.648,2.627,5.65,5.65,0,0,0,1.007,1.607,2.681,2.681,0,0,0,1.5.757,2.65,2.65,0,0,0,1.788-.233,2.037,2.037,0,0,0,1.01-1.529,2.365,2.365,0,0,0-.264-1.733,2.047,2.047,0,0,0-1.444-.932,2.417,2.417,0,0,0-1.686.232,2.535,2.535,0,0,0-1.083,1.169q-1.208-1.421-.678-4.192a4.057,4.057,0,0,1,1.368-2.55,4.152,4.152,0,0,1,3.333-.37l2.454.469a1.948,1.948,0,0,1,1.5,1.394,18.659,18.659,0,0,1,.758,3.551,29.2,29.2,0,0,0,.757,3.776,7.444,7.444,0,0,0,1.383,2.643,4.463,4.463,0,0,0,2.745,1.529,4.852,4.852,0,0,0,3.693-.547A5.023,5.023,0,0,0,77.713,137.784Z" transform="translate(3.454 7.541)" fill="none" stroke="#fff" stroke-miterlimit="10" stroke-width="0.75"/>
        </g>
      </g>
      <text id="r" transform="translate(79.911 132.028) rotate(-65.967)" fill="#7b6c6c" font-size="37" font-family="PlayfairDisplay-Regular, Playfair Display"><tspan x="0" y="0">r</tspan></text>
      <g id="Group_278" data-name="Group 278">
        <g id="Group_277" data-name="Group 277" clip-path="url(#clip-path-4)">
          <path id="Path_143" data-name="Path 143" d="M65.508,105.959a4.923,4.923,0,0,0,0,3.862,9.541,9.541,0,0,0,2.332,3.577l-4.6-2.051a13.062,13.062,0,0,1-1.191,4.058q-.49,1.1-1.128,2.234l.773.345a2.9,2.9,0,0,1,1.741-1.828,4.282,4.282,0,0,1,2.746.474L77.7,121.767a3,3,0,0,1,1.8,1.554,3.517,3.517,0,0,1-.4,2.425l.773.346q1.364-3.451,1.79-4.409.458-1.031,2.245-4.736l.43-.868-.774-.345a5.725,5.725,0,0,1-1.967,2.63,2.89,2.89,0,0,1-2.791-.074l-7.8-3.481a8.849,8.849,0,0,1-2.76-2.025,8.562,8.562,0,0,1-1.921-3.063,4.063,4.063,0,0,1,.042-3.114.964.964,0,0,1,.712-.609,2.5,2.5,0,0,0,1.431,2.138,1.964,1.964,0,0,0,1.654.053,2.178,2.178,0,0,0,1.131-1.151,2.073,2.073,0,0,0,0-1.832,2.7,2.7,0,0,0-1.384-1.3,2.927,2.927,0,0,0-2.48.019A3.8,3.8,0,0,0,65.508,105.959Z" transform="translate(3.697 6.289)" fill="none" stroke="#fff" stroke-miterlimit="10" stroke-width="0.75"/>
        </g>
      </g>
      <text id="n" transform="translate(87.273 116.735) rotate(-51.462)" fill="#7b6c6c" font-size="38" font-family="PlayfairDisplay-Regular, Playfair Display"><tspan x="0" y="0">n</tspan></text>
      <g id="Group_280" data-name="Group 280">
        <g id="Group_279" data-name="Group 279" clip-path="url(#clip-path-4)">
          <path id="Path_144" data-name="Path 144" d="M77.489,88.282a7.336,7.336,0,0,0-1.624,3.884,7.453,7.453,0,0,0,1.169,4.513l-3.72-2.962a13.109,13.109,0,0,1-2.169,3.63q-.754.947-1.653,1.88l.663.528A2.9,2.9,0,0,1,72.3,98.422a4.285,4.285,0,0,1,2.54,1.147l9.868,7.86a3.015,3.015,0,0,1,1.354,1.956,3.529,3.529,0,0,1-.992,2.249l.662.527q2.184-3,2.887-3.883t2.938-3.43l-.662-.527a2.773,2.773,0,0,1-1.782,1.234,3.355,3.355,0,0,1-2.145-.962l-7-5.574a9.541,9.541,0,0,1-2.477-2.876,6.244,6.244,0,0,1-.821-3.205,4.773,4.773,0,0,1,1.076-2.9,2.709,2.709,0,0,1,2.563-1.308,7.382,7.382,0,0,1,3.1,1.642l9.111,7.257A3.37,3.37,0,0,1,93.934,99.5a2.776,2.776,0,0,1-.806,2.012l.663.528q1.982-2.748,2.686-3.632t3.14-3.683l-.662-.527a3.524,3.524,0,0,1-1.97,1.471,3.007,3.007,0,0,1-2.207-.882l-8.42-6.7A13.105,13.105,0,0,0,83.605,86.3a4.583,4.583,0,0,0-2.256-.4A5.61,5.61,0,0,0,77.489,88.282Z" transform="translate(4.217 5.211)" fill="none" stroke="#fff" stroke-miterlimit="10" stroke-width="0.75"/>
        </g>
      </g>
      <text id="e" transform="translate(101.733 98.743) rotate(-36.11)" fill="#7b6c6c" font-size="38" font-family="PlayfairDisplay-Regular, Playfair Display"><tspan x="0" y="0">e</tspan></text>
      <g id="Group_282" data-name="Group 282">
        <g id="Group_281" data-name="Group 281" clip-path="url(#clip-path-4)">
          <path id="Path_145" data-name="Path 145" d="M94.322,73.464a3.143,3.143,0,0,1,3.6-.028,11.559,11.559,0,0,1,3.82,3.7l-7.1,5.179a10.838,10.838,0,0,1-1.864-5.426A3.992,3.992,0,0,1,94.322,73.464Zm14.772,8.283a6.942,6.942,0,0,1-.19,3.98,6.345,6.345,0,0,1-2.22,2.768,4.953,4.953,0,0,1-3.055.907A7.4,7.4,0,0,1,99.979,88.3a11.418,11.418,0,0,1-3.431-3.233,24.778,24.778,0,0,1-1.423-2.155l10.192-7.435q-2.636-3.615-5.51-4.236A7.076,7.076,0,0,0,94,72.752a8.336,8.336,0,0,0-3.055,3.95,8.974,8.974,0,0,0-.233,5.084,15.087,15.087,0,0,0,2.674,5.582A12.727,12.727,0,0,0,97.5,91.127a8.448,8.448,0,0,0,4.751,1.074,9.165,9.165,0,0,0,4.777-1.864,7.488,7.488,0,0,0,2.952-4.125,8.005,8.005,0,0,0-.046-4.68Z" transform="translate(5.489 4.314)" fill="none" stroke="#fff" stroke-miterlimit="10" stroke-width="0.75"/>
        </g>
      </g>
      <text id="y" transform="translate(117.039 87.384) rotate(-22.217)" fill="#7b6c6c" font-size="38" font-family="PlayfairDisplay-Regular, Playfair Display"><tspan x="0" y="0">y</tspan></text>
      <g id="Group_284" data-name="Group 284">
        <g id="Group_283" data-name="Group 283" clip-path="url(#clip-path-4)">
          <path id="Path_146" data-name="Path 146" d="M119.481,60.611q-1.157.473-3.181,1.169l.307.747a5.341,5.341,0,0,1,2.339-.347,1.493,1.493,0,0,1,1.19.995,5.929,5.929,0,0,1,.292,1.883l.262,12.476-9.019-9.29a5.163,5.163,0,0,1-1.2-1.645,1.092,1.092,0,0,1,.175-1.333,6.664,6.664,0,0,1,1.868-1.025l-.32-.784q-2.9,1.445-4.759,2.205a28.838,28.838,0,0,1-3.748,1.27l.319.784a2.509,2.509,0,0,1,1.437-.107,4.579,4.579,0,0,1,1.954,1.16l13.414,13.547.081,3.93q.068,3.368-1.983,4.206a.573.573,0,0,1-.24.054,1.95,1.95,0,0,0,.322-2.091,1.74,1.74,0,0,0-1.067-1.067,2.177,2.177,0,0,0-1.552.09,2.085,2.085,0,0,0-1.236,1.136,2.14,2.14,0,0,0,.066,1.649,2.191,2.191,0,0,0,1.38,1.352,2.963,2.963,0,0,0,2.072-.15,6.116,6.116,0,0,0,1.475-.864,3.475,3.475,0,0,0,1.038-1.3A7.173,7.173,0,0,0,121.709,86l-.057-3.764-.434-18.544a6.378,6.378,0,0,1,.31-2.391,2.27,2.27,0,0,1,1.049-1.212l-.3-.746Q121.122,59.941,119.481,60.611Z" transform="translate(6.292 3.601)" fill="none" stroke="#fff" stroke-miterlimit="10" stroke-width="0.75"/>
        </g>
      </g>
      <text id="_" data-name=" " transform="matrix(0.976, -0.216, 0.216, 0.976, 134.285, 80.65)" fill="#7b6c6c" font-size="38" font-family="PlayfairDisplay-Regular, Playfair Display"><tspan x="0" y="0"> </tspan></text>
      <text id="_2" data-name=" " transform="translate(143.603 78.56) rotate(-5.538)" fill="#7b6c6c" font-size="38" font-family="PlayfairDisplay-Regular, Playfair Display"><tspan x="0" y="0"> </tspan></text>
      <text id="M" transform="translate(152.627 75.851) rotate(10.025)" fill="#7b6c6c" font-size="38" font-family="PlayfairDisplay-Regular, Playfair Display"><tspan x="0" y="0">M</tspan></text>
      <g id="Group_286" data-name="Group 286">
        <g id="Group_285" data-name="Group 285" clip-path="url(#clip-path-4)">
          <path id="Path_147" data-name="Path 147" d="M181.123,53.921l.14-.794q-1.847-.2-5.063-.772l-1.865-.329L161.761,73.379l-4.668-24.524q-1.332-.113-3.4-.478-2.382-.422-3.67-.771l-.14.793a8.067,8.067,0,0,1,2.026.685,1.448,1.448,0,0,1,.732,1.071,7.278,7.278,0,0,1-.146,2.225l-3.411,19.29a8.338,8.338,0,0,1-.643,2.24,1.781,1.781,0,0,1-1.108.949,5.614,5.614,0,0,1-2.137.052l-.141.793q1.332.113,3.712.535,2.62.463,4.027.835l.142-.793a7.064,7.064,0,0,1-2.27-.832,1.823,1.823,0,0,1-.818-1.27A7.679,7.679,0,0,1,150,71.832l3.7-20.957L159.153,78.4l.636.112,14.1-23.988L170.134,75.8a7.331,7.331,0,0,1-.625,2.142,1.448,1.448,0,0,1-1.054.754,8.014,8.014,0,0,1-2.14-.05l-.14.793q1.688.175,5.1.779,3.214.568,5.02,1.011l.14-.793a8.046,8.046,0,0,1-2.029-.686,1.449,1.449,0,0,1-.731-1.071,7.29,7.29,0,0,1,.147-2.225L177.3,56.766a7.343,7.343,0,0,1,.625-2.14,1.454,1.454,0,0,1,1.055-.755A8.07,8.07,0,0,1,181.123,53.921Z" transform="translate(8.802 2.889)" fill="none" stroke="#fff" stroke-miterlimit="10" stroke-width="0.75"/>
        </g>
      </g>
      <text id="a-2" data-name="a" transform="translate(185.001 83.546) rotate(29.081)" fill="#7b6c6c" font-size="39" font-family="PlayfairDisplay-Regular, Playfair Display"><tspan x="0" y="0">a</tspan></text>
      <g id="Group_288" data-name="Group 288">
        <g id="Group_287" data-name="Group 287" clip-path="url(#clip-path-4)">
          <path id="Path_148" data-name="Path 148" d="M181.513,83.753a3.084,3.084,0,0,1-1.593-1.946,3.828,3.828,0,0,1,.558-2.827,4.489,4.489,0,0,1,1.853-1.921,5.413,5.413,0,0,1,2.2-.6,18.648,18.648,0,0,1,2.763.13q1.457.119,2.2.115a2.808,2.808,0,0,0,1.331-.319l-3.841,6.9Q183.839,85.046,181.513,83.753Zm-2.332.547a7.822,7.822,0,0,0,3.48,1.037,7.027,7.027,0,0,0,3.792-1.1,4.113,4.113,0,0,0-.6,2.662,3.266,3.266,0,0,0,1.89,2.157,4.478,4.478,0,0,0,1.8.611,9.887,9.887,0,0,0,2.126-.132l-.054-.815a5.188,5.188,0,0,1-1.1.105,1.915,1.915,0,0,1-.9-.246,1.051,1.051,0,0,1-.629-.858,2.782,2.782,0,0,1,.457-1.4l5.446-9.793a14.1,14.1,0,0,0,1.378-3.178,4.567,4.567,0,0,0-.093-2.611,6.775,6.775,0,0,0-3.433-3.615,11.4,11.4,0,0,0-3.068-1.2,8.361,8.361,0,0,0-2.7-.209,5.675,5.675,0,0,0-1.842.451,2.694,2.694,0,0,0-1.189,1.185,2.65,2.65,0,0,0-.338,1.771,2.036,2.036,0,0,0,1.136,1.438,2.368,2.368,0,0,0,1.729.293,2.051,2.051,0,0,0,1.339-1.078,2.422,2.422,0,0,0,.307-1.674,2.534,2.534,0,0,0-.768-1.4q1.725-.7,4.191.671a4.048,4.048,0,0,1,1.993,2.1,4.146,4.146,0,0,1-.695,3.281l-1.214,2.184a1.952,1.952,0,0,1-1.795.985,18.7,18.7,0,0,1-3.607-.394,29.222,29.222,0,0,0-3.824-.465,7.4,7.4,0,0,0-2.942.484,4.466,4.466,0,0,0-2.315,2.126,4.858,4.858,0,0,0-.637,3.681A5.027,5.027,0,0,0,179.181,84.3Z" transform="translate(10.702 3.986)" fill="none" stroke="#fff" stroke-miterlimit="10" stroke-width="0.75"/>
        </g>
      </g>
      <text id="r-2" data-name="r" transform="matrix(0.742, 0.671, -0.671, 0.742, 202.862, 91.247)" fill="#7b6c6c" font-size="37" font-family="PlayfairDisplay-Regular, Playfair Display"><tspan x="0" y="0">r</tspan></text>
      <g id="Group_290" data-name="Group 290">
        <g id="Group_289" data-name="Group 289" clip-path="url(#clip-path-4)">
          <path id="Path_149" data-name="Path 149" d="M213.466,82.678a4.925,4.925,0,0,0-3.67-1.2,9.556,9.556,0,0,0-4.125,1.106l3.379-3.737a13.119,13.119,0,0,1-3.486-2.393q-.9-.81-1.773-1.765l-.567.628a2.9,2.9,0,0,1,1.2,2.222,4.3,4.3,0,0,1-1.3,2.463l-8.462,9.357a3.011,3.011,0,0,1-2.036,1.228,3.522,3.522,0,0,1-2.182-1.131l-.567.628q2.857,2.367,3.636,3.07.835.757,3.8,3.6l.69.679.567-.628a5.725,5.725,0,0,1-1.889-2.687,2.883,2.883,0,0,1,.938-2.629l5.731-6.338a8.839,8.839,0,0,1,2.781-2,8.576,8.576,0,0,1,3.51-.876,4.064,4.064,0,0,1,2.947,1.008.968.968,0,0,1,.357.867,2.5,2.5,0,0,0-2.476.7,1.962,1.962,0,0,0-.565,1.555,2.173,2.173,0,0,0,.744,1.432,2.066,2.066,0,0,0,1.74.569,2.711,2.711,0,0,0,1.668-.91,2.933,2.933,0,0,0,.751-2.364A3.8,3.8,0,0,0,213.466,82.678Z" transform="translate(11.521 4.532)" fill="none" stroke="#fff" stroke-miterlimit="10" stroke-width="0.75"/>
        </g>
      </g>
      <text id="i" transform="matrix(0.61, 0.792, -0.792, 0.61, 217.197, 101.856)" fill="#7b6c6c" font-size="35" font-family="PlayfairDisplay-Regular, Playfair Display"><tspan x="0" y="0">i</tspan></text>
      <g id="Group_292" data-name="Group 292">
        <g id="Group_291" data-name="Group 291" clip-path="url(#clip-path-4)">
          <path id="Path_150" data-name="Path 150" d="M222.226,93.353a13.113,13.113,0,0,1-3-2.978q-.74-.956-1.429-2.053l-.674.517a2.9,2.9,0,0,1,.782,2.4,4.3,4.3,0,0,1-1.721,2.189l-10,7.7a3.014,3.014,0,0,1-2.224.846,3.541,3.541,0,0,1-1.945-1.5l-.669.515q2.387,2.84,3.1,3.768t2.848,3.962l.67-.515a3.529,3.529,0,0,1-.956-2.266A3,3,0,0,1,208.4,104Zm6.353-7.537a2.615,2.615,0,1,0,.5,1.9A2.478,2.478,0,0,0,228.579,85.816Z" transform="translate(12.218 5.147)" fill="none" stroke="#fff" stroke-miterlimit="10" stroke-width="0.75"/>
        </g>
      </g>
      <text id="a-3" data-name="a" transform="translate(221.072 112.644) rotate(63.546)" fill="#7b6c6c" font-size="39" font-family="PlayfairDisplay-Regular, Playfair Display"><tspan x="0" y="0">a</tspan></text>
      <g id="Group_294" data-name="Group 294">
        <g id="Group_293" data-name="Group 293" clip-path="url(#clip-path-4)">
          <path id="Path_151" data-name="Path 151" d="M211.965,114.023a3.086,3.086,0,0,1-.212-2.506,3.824,3.824,0,0,1,2.06-2.015,4.489,4.489,0,0,1,2.615-.536,5.426,5.426,0,0,1,2.152.752,18.521,18.521,0,0,1,2.205,1.672q1.134.921,1.745,1.338a2.8,2.8,0,0,0,1.28.489l-7.073,3.519Q213.151,116.4,211.965,114.023Zm-2.233-.871a7.817,7.817,0,0,0,2.284,2.827,7.032,7.032,0,0,0,3.746,1.241,4.1,4.1,0,0,0-2,1.853,3.266,3.266,0,0,0,.335,2.849,4.526,4.526,0,0,0,1.142,1.525,9.776,9.776,0,0,0,1.828,1.094l.416-.7a5.182,5.182,0,0,1-.963-.534,1.914,1.914,0,0,1-.6-.713,1.058,1.058,0,0,1-.034-1.064,2.827,2.827,0,0,1,1.173-.9l10.032-4.991a14.131,14.131,0,0,0,2.933-1.842,4.553,4.553,0,0,0,1.4-2.206,6.772,6.772,0,0,0-.783-4.922,11.5,11.5,0,0,0-1.851-2.726,8.394,8.394,0,0,0-2.105-1.7,5.723,5.723,0,0,0-1.776-.67,2.691,2.691,0,0,0-1.649.3,2.657,2.657,0,0,0-1.283,1.268,2.043,2.043,0,0,0,.123,1.831,2.376,2.376,0,0,0,1.259,1.219,2.043,2.043,0,0,0,1.713-.132,2.414,2.414,0,0,0,1.2-1.2,2.54,2.54,0,0,0,.156-1.587q1.82.4,3.077,2.926a4.052,4.052,0,0,1,.454,2.859q-.337,1.27-2.429,2.311l-2.238,1.113a1.949,1.949,0,0,1-2.035-.2,18.8,18.8,0,0,1-2.755-2.367,29.114,29.114,0,0,0-2.886-2.547,7.441,7.441,0,0,0-2.7-1.266,4.456,4.456,0,0,0-3.11.444,4.855,4.855,0,0,0-2.61,2.671A5.031,5.031,0,0,0,209.733,113.152Z" transform="translate(12.681 6.162)" fill="none" stroke="#fff" stroke-miterlimit="10" stroke-width="0.75"/>
        </g>
      </g>
      <text id="_3" data-name=" " transform="translate(230.053 129.201) rotate(73.646)" fill="#7b6c6c" font-size="38" font-family="PlayfairDisplay-Regular, Playfair Display"><tspan x="0" y="0"> </tspan></text>
      <text id="_4" data-name=" " transform="translate(232.765 138.342) rotate(80.575)" fill="#7b6c6c" font-size="38" font-family="PlayfairDisplay-Regular, Playfair Display"><tspan x="0" y="0"> </tspan></text>
      <text id="B-2" data-name="B" transform="translate(234.153 147.298) rotate(92.668)" fill="#7b6c6c" font-size="39" font-family="PlayfairDisplay-Regular, Playfair Display"><tspan x="0" y="0">B</tspan></text>
      <g id="Group_296" data-name="Group 296">
        <g id="Group_295" data-name="Group 295" clip-path="url(#clip-path-4)">
          <path id="Path_152" data-name="Path 152" d="M219.773,150.468a5.238,5.238,0,0,1,.351-1.9,1.517,1.517,0,0,1,.988-.821,6.914,6.914,0,0,1,2.145-.143l10.186.475-.156,3.383q-.177,3.744-1.906,5.378a6.418,6.418,0,0,1-4.911,1.486Q219.422,158,219.773,150.468Zm26.777,1.208a5.52,5.52,0,0,1-1.69,4.238,6.619,6.619,0,0,1-4.572,1.118,7.925,7.925,0,0,1-4.71-1.531q-1.731-1.392-1.577-4.694l.125-2.7,9.1.424a7.325,7.325,0,0,1,2.163.343,1.591,1.591,0,0,1,.965.911A4.761,4.761,0,0,1,246.55,151.676Zm-12.8,2.793.078,0a9.152,9.152,0,0,0,2.6,4.782,6.572,6.572,0,0,0,4.12,1.665,5.558,5.558,0,0,0,4.691-1.981,9.989,9.989,0,0,0,2.026-6.22q.045-.966.04-1.733l.163-4.351q.148-3.22.349-4.906l-.805-.037a8.1,8.1,0,0,1-.421,2.1,1.448,1.448,0,0,1-.968.862,7.3,7.3,0,0,1-2.225.138l-19.97-.929a7.277,7.277,0,0,1-2.2-.346,1.448,1.448,0,0,1-.884-.949,8.029,8.029,0,0,1-.224-2.129l-.805-.037q.043,1.7-.111,5-.118,2.5-.317,5.069-.078.764-.126,1.851a12.4,12.4,0,0,0,.746,5.2,7.7,7.7,0,0,0,2.6,3.471,7.235,7.235,0,0,0,4.013,1.357,6.513,6.513,0,0,0,4.779-1.674Q232.939,158.868,233.751,154.469Z" transform="translate(13.273 8.52)" fill="none" stroke="#fff" stroke-miterlimit="10" stroke-width="0.75"/>
        </g>
      </g>
      <text id="j-2" data-name="j" transform="translate(236.312 171.946) rotate(104.914)" fill="#7b6c6c" font-size="35" font-family="PlayfairDisplay-Regular, Playfair Display"><tspan x="0" y="0">j</tspan></text>
      <g id="Group_298" data-name="Group 298">
        <g id="Group_297" data-name="Group 297" clip-path="url(#clip-path-4)">
          <path id="Path_153" data-name="Path 153" d="M246.6,174.157a2.616,2.616,0,1,0-1.207,1.556A2.474,2.474,0,0,0,246.6,174.157ZM211.145,158.04a7.587,7.587,0,0,0-.172,3.229,8.237,8.237,0,0,0,1.074,2.935q2.213,3.593,8.678,5.315l16.008,4.263a13.2,13.2,0,0,1,.532-4.2q.323-1.208.761-2.383l-.818-.217a2.906,2.906,0,0,1-1.43,2.08,4.281,4.281,0,0,1-2.786-.034l-15.072-4.014a10.484,10.484,0,0,1-5.086-2.669,4.413,4.413,0,0,1-1.106-4.154Z" transform="translate(12.796 9.59)" fill="none" stroke="#fff" stroke-miterlimit="10" stroke-width="0.75"/>
        </g>
      </g>
      <text id="a-4" data-name="a" transform="translate(230.397 180.644) rotate(115.659)" fill="#7b6c6c" font-size="39" font-family="PlayfairDisplay-Regular, Playfair Display"><tspan x="0" y="0">a</tspan></text>
      <g id="Group_300" data-name="Group 300">
        <g id="Group_299" data-name="Group 299" clip-path="url(#clip-path-4)">
          <path id="Path_154" data-name="Path 154" d="M213.986,177.641a3.087,3.087,0,0,1,1.848-1.706,3.819,3.819,0,0,1,2.854.387,4.487,4.487,0,0,1,2.028,1.735,5.405,5.405,0,0,1,.729,2.161,18.565,18.565,0,0,1,.036,2.767q-.033,1.461.017,2.2a2.806,2.806,0,0,0,.4,1.311l-7.12-3.421Q212.835,180.038,213.986,177.641Zm-.685-2.3a7.8,7.8,0,0,0-.827,3.537,7.017,7.017,0,0,0,1.321,3.72,4.109,4.109,0,0,0-2.692-.444,3.265,3.265,0,0,0-2.043,2.015,4.478,4.478,0,0,0-.5,1.838,9.942,9.942,0,0,0,.258,2.114l.809-.1a5.191,5.191,0,0,1-.17-1.087,1.928,1.928,0,0,1,.193-.914,1.058,1.058,0,0,1,.819-.68,2.815,2.815,0,0,1,1.431.374l10.1,4.852a14.118,14.118,0,0,0,3.256,1.184,4.558,4.558,0,0,0,2.6-.248,6.777,6.777,0,0,0,3.4-3.642,11.437,11.437,0,0,0,1.014-3.134,8.411,8.411,0,0,0,.048-2.7,5.7,5.7,0,0,0-.562-1.813,2.686,2.686,0,0,0-1.252-1.115,2.65,2.65,0,0,0-1.788-.233,2.036,2.036,0,0,0-1.369,1.22,2.365,2.365,0,0,0-.188,1.743,2.042,2.042,0,0,0,1.155,1.272,2.422,2.422,0,0,0,1.69.207,2.537,2.537,0,0,0,1.348-.851q.8,1.682-.421,4.226a4.043,4.043,0,0,1-1.976,2.113,4.155,4.155,0,0,1-3.317-.5l-2.252-1.083a1.951,1.951,0,0,1-1.091-1.732,18.691,18.691,0,0,1,.177-3.625,29.16,29.16,0,0,0,.237-3.844,7.432,7.432,0,0,0-.659-2.909,4.461,4.461,0,0,0-2.261-2.183,4.852,4.852,0,0,0-3.71-.418A5.028,5.028,0,0,0,213.3,175.345Z" transform="translate(12.655 10.455)" fill="none" stroke="#fff" stroke-miterlimit="10" stroke-width="0.75"/>
        </g>
      </g>
      <text id="r-3" data-name="r" transform="translate(223.787 198.918) rotate(128.768)" fill="#7b6c6c" font-size="37" font-family="PlayfairDisplay-Regular, Playfair Display"><tspan x="0" y="0">r</tspan></text>
      <g id="Group_302" data-name="Group 302">
        <g id="Group_301" data-name="Group 301" clip-path="url(#clip-path-4)">
          <path id="Path_155" data-name="Path 155" d="M216.9,209.463a4.924,4.924,0,0,0,.982-3.735,9.54,9.54,0,0,0-1.345-4.053l3.928,3.154a13.155,13.155,0,0,1,2.186-3.621q.754-.943,1.658-1.873l-.66-.53a2.91,2.91,0,0,1-2.148,1.325,4.286,4.286,0,0,1-2.536-1.157l-9.836-7.9a3.01,3.01,0,0,1-1.347-1.961,3.534,3.534,0,0,1,1-2.244l-.66-.53q-2.2,2.991-2.853,3.81-.7.878-3.376,4.008l-.635.73.66.529a5.734,5.734,0,0,1,2.572-2.044,2.894,2.894,0,0,1,2.679.783l6.662,5.35a8.854,8.854,0,0,1,2.155,2.661,8.57,8.57,0,0,1,1.079,3.451,4.061,4.061,0,0,1-.834,3,.967.967,0,0,1-.845.407,2.5,2.5,0,0,0-.838-2.431,1.958,1.958,0,0,0-1.586-.471,2.171,2.171,0,0,0-1.386.824,2.078,2.078,0,0,0-.466,1.771,2.7,2.7,0,0,0,1.007,1.609,2.929,2.929,0,0,0,2.4.613A3.793,3.793,0,0,0,216.9,209.463Z" transform="translate(12.212 11.307)" fill="none" stroke="#fff" stroke-miterlimit="10" stroke-width="0.75"/>
        </g>
      </g>
      <text id="n-2" data-name="n" transform="translate(212.712 211.926) rotate(143.262)" fill="#7b6c6c" font-size="38" font-family="PlayfairDisplay-Regular, Playfair Display"><tspan x="0" y="0">n</tspan></text>
      <g id="Group_304" data-name="Group 304">
        <g id="Group_303" data-name="Group 303" clip-path="url(#clip-path-4)">
          <path id="Path_156" data-name="Path 156" d="M201.18,223.769a7.339,7.339,0,0,0,2.559-3.343,7.451,7.451,0,0,0,.015-4.664l2.844,3.811a13.17,13.17,0,0,1,3.023-2.959c.644-.483,1.339-.948,2.074-1.4l-.5-.679a2.911,2.911,0,0,1-2.413.745,4.289,4.289,0,0,1-2.164-1.755l-7.547-10.109a3.012,3.012,0,0,1-.812-2.235,3.532,3.532,0,0,1,1.532-1.923l-.506-.679q-2.877,2.348-3.78,3.023t-3.713,2.571l.507.679a2.776,2.776,0,0,1,2.035-.742,3.365,3.365,0,0,1,1.832,1.475l5.351,7.171a9.531,9.531,0,0,1,1.666,3.409,6.257,6.257,0,0,1-.02,3.31,4.784,4.784,0,0,1-1.779,2.535,2.71,2.71,0,0,1-2.812.614,7.4,7.4,0,0,1-2.577-2.376l-6.969-9.335a3.368,3.368,0,0,1-.893-2.174,2.777,2.777,0,0,1,1.29-1.743l-.506-.679q-2.619,2.154-3.523,2.83t-3.972,2.764l.507.678a3.524,3.524,0,0,1,2.279-.921,3.008,3.008,0,0,1,1.911,1.414l6.437,8.625a13.184,13.184,0,0,0,2.21,2.423,4.6,4.6,0,0,0,2.078.964A5.608,5.608,0,0,0,201.18,223.769Z" transform="translate(11.008 12.05)" fill="none" stroke="#fff" stroke-miterlimit="10" stroke-width="0.75"/>
        </g>
      </g>
      <text id="a-5" data-name="a" transform="matrix(-0.931, 0.364, -0.364, -0.931, 193.82, 224.66)" fill="#7b6c6c" font-size="39" font-family="PlayfairDisplay-Regular, Playfair Display"><tspan x="0" y="0">a</tspan></text>
      <g id="Group_306" data-name="Group 306">
        <g id="Group_305" data-name="Group 305" clip-path="url(#clip-path-4)">
          <path id="Path_157" data-name="Path 157" d="M175.978,214.687a3.087,3.087,0,0,1,2.514.013,3.816,3.816,0,0,1,1.825,2.23,4.5,4.5,0,0,1,.3,2.652,5.427,5.427,0,0,1-.941,2.078,18.554,18.554,0,0,1-1.86,2.047q-1.018,1.048-1.487,1.621a2.829,2.829,0,0,0-.6,1.23l-2.879-7.357Q173.5,215.657,175.978,214.687Zm1.064-2.147a7.839,7.839,0,0,0-3.017,2.025,7.041,7.041,0,0,0-1.57,3.622,4.1,4.1,0,0,0-1.667-2.161,3.265,3.265,0,0,0-2.868.083,4.506,4.506,0,0,0-1.62,1,9.921,9.921,0,0,0-1.252,1.724l.662.476a5.287,5.287,0,0,1,.617-.912,1.929,1.929,0,0,1,.764-.537,1.054,1.054,0,0,1,1.063.059,2.813,2.813,0,0,1,.791,1.249l4.084,10.434a14.028,14.028,0,0,0,1.575,3.084,4.548,4.548,0,0,0,2.072,1.591,6.775,6.775,0,0,0,4.974-.345,11.4,11.4,0,0,0,2.879-1.6,8.349,8.349,0,0,0,1.877-1.946,5.706,5.706,0,0,0,.825-1.708,2.687,2.687,0,0,0-.156-1.671,2.648,2.648,0,0,0-1.15-1.389,2.038,2.038,0,0,0-1.834-.04,2.378,2.378,0,0,0-1.326,1.147,2.04,2.04,0,0,0-.019,1.718,2.409,2.409,0,0,0,1.095,1.3,2.533,2.533,0,0,0,1.566.3q-.562,1.777-3.187,2.8a4.056,4.056,0,0,1-2.887.2,4.158,4.158,0,0,1-2.087-2.624l-.911-2.327a1.954,1.954,0,0,1,.381-2.01,18.9,18.9,0,0,1,2.6-2.534,28.851,28.851,0,0,0,2.792-2.651,7.385,7.385,0,0,0,1.5-2.579,4.451,4.451,0,0,0-.165-3.136,4.855,4.855,0,0,0-2.431-2.837A5.028,5.028,0,0,0,177.042,212.54Z" transform="translate(10.015 12.866)" fill="none" stroke="#fff" stroke-miterlimit="10" stroke-width="0.75"/>
        </g>
      </g>
      <text id="d" transform="translate(176.396 231.882) rotate(173.65)" fill="#7b6c6c" font-size="39" font-family="PlayfairDisplay-Regular, Playfair Display"><tspan x="0" y="0">d</tspan></text>
      <g id="Group_308" data-name="Group 308">
        <g id="Group_307" data-name="Group 307" clip-path="url(#clip-path-4)">
          <path id="Path_158" data-name="Path 158" d="M156.248,219.087a4.489,4.489,0,0,1,4.356,1.97q1.674,2.267,2.167,7.079.584,4.881-.656,7.6a4.58,4.58,0,0,1-3.723,2.99,4.353,4.353,0,0,1-4.83-2.586L152.235,224.2a6.6,6.6,0,0,1,1.344-3.6A3.957,3.957,0,0,1,156.248,219.087Zm-7.716,4.631,3.009,27.04a13.129,13.129,0,0,1,4.1-1.025q1.2-.134,2.5-.156l-.094-.842a2.906,2.906,0,0,1-2.457-.577,4.291,4.291,0,0,1-.98-2.608l-.866-7.773a4.7,4.7,0,0,0,2.223,1.558,6.637,6.637,0,0,0,2.848.271,8.518,8.518,0,0,0,7.282-5.819,13.379,13.379,0,0,0,.56-6.085q-.555-5.333-3.044-7.853a7.3,7.3,0,0,0-6.337-2.093,6.342,6.342,0,0,0-3.42,1.333A5.72,5.72,0,0,0,152,222.075l-.4-3.565a13.154,13.154,0,0,1-4.1,1.024q-1.241.14-2.5.157l.094.841a2.9,2.9,0,0,1,2.457.579A4.279,4.279,0,0,1,148.532,223.718Z" transform="translate(8.799 13.21)" fill="none" stroke="#fff" stroke-miterlimit="10" stroke-width="0.75"/>
        </g>
      </g>
      <text id="o" transform="translate(154.439 234.421) rotate(-170.667)" fill="#7b6c6c" font-size="39" font-family="PlayfairDisplay-Regular, Playfair Display"><tspan x="0" y="0">o</tspan></text>
      <g id="Group_310" data-name="Group 310">
        <g id="Group_309" data-name="Group 309" clip-path="url(#clip-path-4)">
          <path id="Path_159" data-name="Path 159" d="M132.859,238.221a4.279,4.279,0,0,1-3.377-3.067q-.988-2.675-.146-7.806t2.634-7.328a4.21,4.21,0,0,1,7.556,1.243q.994,2.654.151,7.785t-2.638,7.347A4.277,4.277,0,0,1,132.859,238.221Zm-.132.8a8.616,8.616,0,0,0,6.985-1.61q2.926-2.277,3.822-7.725t-1.152-8.521a9.49,9.49,0,0,0-13.085-2.151q-2.923,2.256-3.821,7.7t1.15,8.543A8.617,8.617,0,0,0,132.727,239.016Z" transform="translate(7.597 13.184)" fill="none" stroke="#fff" stroke-miterlimit="10" stroke-width="0.75"/>
        </g>
      </g>
      <text id="t" transform="translate(133.065 232.574) rotate(-158.031)" fill="#7b6c6c" font-size="37" font-family="PlayfairDisplay-Regular, Playfair Display"><tspan x="0" y="0">t</tspan></text>
      <g id="Group_312" data-name="Group 312">
        <g id="Group_311" data-name="Group 311" clip-path="url(#clip-path-4)">
          <path id="Path_160" data-name="Path 160" d="M110.478,239.065a12.531,12.531,0,0,1,3.575.834l2.307-5.719,3.589,1.448.3-.748-3.588-1.448,5.051-12.522a13.966,13.966,0,0,0,.979-3.342,4.717,4.717,0,0,0-.326-2.478,4.251,4.251,0,0,0-1.081-1.523,6.685,6.685,0,0,0-1.973-1.143q-3.923-1.583-6.94,3.2l.672.488a8.282,8.282,0,0,1,2.62-2.506,2.747,2.747,0,0,1,2.358-.135,2.338,2.338,0,0,1,1.474,1.464,4.118,4.118,0,0,1-.364,2.677L113.3,232.075l-5.533-2.232-.3.748L113,232.822Z" transform="translate(6.521 12.866)" fill="none" stroke="#fff" stroke-miterlimit="10" stroke-width="0.75"/>
        </g>
      </g>
      <text id="t-2" data-name="t" transform="matrix(-0.859, -0.512, 0.512, -0.859, 121.699, 228.163)" fill="#7b6c6c" font-size="37" font-family="PlayfairDisplay-Regular, Playfair Display"><tspan x="0" y="0">t</tspan></text>
      <g id="Group_314" data-name="Group 314">
        <g id="Group_313" data-name="Group 313" clip-path="url(#clip-path-4)">
          <path id="Path_161" data-name="Path 161" d="M97.069,232.29a12.563,12.563,0,0,1,3.4,1.371l3.157-5.3,3.323,1.98.413-.692-3.323-1.981,6.911-11.6a13.907,13.907,0,0,0,1.479-3.153,4.705,4.705,0,0,0,.059-2.5,4.251,4.251,0,0,0-.835-1.67,6.69,6.69,0,0,0-1.775-1.433q-3.634-2.165-7.347,2.1l.589.585a8.249,8.249,0,0,1,2.973-2.076,2.749,2.749,0,0,1,2.352.228,2.342,2.342,0,0,1,1.233,1.673,4.124,4.124,0,0,1-.77,2.59l-7.985,13.4L95.8,222.762l-.412.693,5.123,3.053Z" transform="translate(5.788 12.536)" fill="none" stroke="#fff" stroke-miterlimit="10" stroke-width="0.75"/>
        </g>
      </g>
      <text id="i-2" data-name="i" transform="translate(108.725 222.652) rotate(-140.485)" fill="#7b6c6c" font-size="35" font-family="PlayfairDisplay-Regular, Playfair Display"><tspan x="0" y="0">i</tspan></text>
      <g id="Group_316" data-name="Group 316">
        <g id="Group_315" data-name="Group 315" clip-path="url(#clip-path-4)">
          <path id="Path_162" data-name="Path 162" d="M87.673,217.675a13.2,13.2,0,0,1,3.593,2.232q.936.77,1.852,1.683l.539-.652a2.9,2.9,0,0,1-1.3-2.166,4.292,4.292,0,0,1,1.189-2.52l8.027-9.733a3.016,3.016,0,0,1,1.978-1.321,3.533,3.533,0,0,1,2.232,1.031l.539-.652q-2.962-2.237-3.865-2.979t-3.66-3.227l-.539.652a3.524,3.524,0,0,1,1.438,2,3.009,3.009,0,0,1-.921,2.191Zm-4.511,8.765a2.617,2.617,0,1,0-.912-1.745A2.479,2.479,0,0,0,83.162,226.441Z" transform="translate(4.99 12.098)" fill="none" stroke="#fff" stroke-miterlimit="10" stroke-width="0.75"/>
        </g>
      </g>
      <text id="r-4" data-name="r" transform="translate(101.032 214.11) rotate(-130.037)" fill="#7b6c6c" font-size="37" font-family="PlayfairDisplay-Regular, Playfair Display"><tspan x="0" y="0">r</tspan></text>
      <g id="Group_318" data-name="Group 318">
        <g id="Group_317" data-name="Group 317" clip-path="url(#clip-path-4)">
          <path id="Path_163" data-name="Path 163" d="M74.124,203.5a4.924,4.924,0,0,0,3.473,1.689,9.53,9.53,0,0,0,4.238-.532L77.977,207.9a13.138,13.138,0,0,1,3.128,2.846q.778.926,1.516,1.991l.647-.545a2.9,2.9,0,0,1-.881-2.365,4.284,4.284,0,0,1,1.627-2.26l9.66-8.116a3.012,3.012,0,0,1,2.183-.94,3.528,3.528,0,0,1,2.009,1.418l.648-.544q-2.507-2.737-3.183-3.537-.726-.864-3.279-4.09l-.591-.766-.648.544a5.726,5.726,0,0,1,1.505,2.92,2.887,2.887,0,0,1-1.288,2.477l-6.541,5.5a8.869,8.869,0,0,1-3.028,1.6,8.59,8.59,0,0,1-3.6.388,4.057,4.057,0,0,1-2.782-1.4.964.964,0,0,1-.235-.907,2.5,2.5,0,0,0,2.548-.351,1.963,1.963,0,0,0,.771-1.464,2.176,2.176,0,0,0-.541-1.52,2.07,2.07,0,0,0-1.647-.8,2.711,2.711,0,0,0-1.776.675,2.932,2.932,0,0,0-1.067,2.239A3.8,3.8,0,0,0,74.124,203.5Z" transform="translate(4.438 11.589)" fill="none" stroke="#fff" stroke-miterlimit="10" stroke-width="0.75"/>
          <path id="Path_164" data-name="Path 164" d="M155.3,146.025a7.955,7.955,0,1,1-7.955-7.955,7.955,7.955,0,0,1,7.955,7.955" transform="translate(8.458 8.378)" fill="#ffc79f"/>
        </g>
      </g>
    </g>
    <g id="Group_434" data-name="Group 434" transform="translate(14984.678 3390.613)">
      <g id="Group_219" data-name="Group 219">
        <g id="Group_218" data-name="Group 218" clip-path="url(#clip-path-29)">
          <path id="Path_113" data-name="Path 113" d="M129.436,105.119c5.275-1.676,3.871-8.763,9.911-14.253,6.118-5.559,17.339-7.178,24.354-2.468,6.445,4.329,7.767,12.946,8.265,16.2,1.466,9.564-2.359,15.037.867,17.892,2.437,2.157,5.139-.5,12.366.639,2.633.417,9.574,1.517,13.968,7.1,4.616,5.866,3.622,13.123,3.392,14.8-1.129,8.24-6.784,13.43-9.721,16.126-7.367,6.762-13.907,1.971-19.1,7.614-6.494,7.055.5,14.728-5.31,22.3-5.758,7.5-17.629,12.933-26.5,9.31-5.776-2.359-11.223-8.942-12.949-15.722-.945-3.712-.834-7.716-2.727-8.24-1.506-.417-2.657,1.819-5.335,3.38-5.329,3.105-12.015.8-13.208.392-7.838-2.7-13.71-11.515-13.329-19.468.488-10.188,11-13.919,9.151-21.745-1.088-4.615-4.954-4.217-7.7-10.577-.446-1.035-3.939-9.486.165-17.049,4.087-7.533,13.718-10.515,20.784-9.678,6.722.8,8.558,4.75,12.652,3.45" transform="translate(-5.502 -5.011)" fill="#c0d2e6"/>
        </g>
      </g>
      <text id="B-3" data-name="B" transform="matrix(-0.209, -0.978, 0.978, -0.209, 72.451, 164.184)" fill="#7b6c6c" font-size="33" font-family="PlayfairDisplay-Regular, Playfair Display"><tspan x="0" y="0">B</tspan></text>
      <g id="Group_221" data-name="Group 221">
        <g id="Group_220" data-name="Group 220" clip-path="url(#clip-path-29)">
          <path id="Path_114" data-name="Path 114" d="M74.977,162.626a4.641,4.641,0,0,1,.127,1.711,1.347,1.347,0,0,1-.662.926,6.108,6.108,0,0,1-1.81.606l-8.853,1.888-.627-2.939q-.693-3.254.424-5.046a5.7,5.7,0,0,1,3.882-2.384Q73.582,156.083,74.977,162.626Zm-23.261,5a4.9,4.9,0,0,1,.5-4.02,5.874,5.874,0,0,1,3.673-1.99,7.032,7.032,0,0,1,4.389.253q1.8.8,2.411,3.674l.5,2.345-7.908,1.686a6.5,6.5,0,0,1-1.934.192,1.411,1.411,0,0,1-1.036-.566A4.228,4.228,0,0,1,51.716,167.622Zm10.361-5.282-.07.015a8.108,8.108,0,0,0-3.312-3.519,5.821,5.821,0,0,0-3.911-.5,4.936,4.936,0,0,0-3.582,2.757,8.876,8.876,0,0,0-.337,5.8q.179.84.357,1.5l.84,3.772q.6,2.8.806,4.291l.7-.149a7.074,7.074,0,0,1-.11-1.9,1.289,1.289,0,0,1,.636-.96,6.453,6.453,0,0,1,1.879-.619l17.355-3.7a6.423,6.423,0,0,1,1.969-.2,1.286,1.286,0,0,1,.973.617,7.039,7.039,0,0,1,.671,1.777l.7-.149q-.419-1.448-1.029-4.317-.465-2.169-.871-4.424c-.071-.447-.174-.988-.309-1.617a10.992,10.992,0,0,0-1.812-4.3,6.822,6.822,0,0,0-3.016-2.393,6.409,6.409,0,0,0-3.75-.261,5.779,5.779,0,0,0-3.726,2.513Q61.782,158.381,62.077,162.341Z" transform="translate(-2.958 -8.994)" fill="none" stroke="#fff" stroke-miterlimit="10" stroke-width="0.75"/>
        </g>
      </g>
      <text id="j-3" data-name="j" transform="translate(66.565 143.109) rotate(-89.837)" fill="#7b6c6c" font-size="31" font-family="PlayfairDisplay-Regular, Playfair Display"><tspan x="0" y="0">j</tspan></text>
      <g id="Group_223" data-name="Group 223">
        <g id="Group_222" data-name="Group 222" clip-path="url(#clip-path-29)">
          <path id="Path_115" data-name="Path 115" d="M46.534,146.762a2.318,2.318,0,1,0,.684-1.608A2.2,2.2,0,0,0,46.534,146.762Zm34.079,5.822a6.745,6.745,0,0,0-.583-2.81,7.3,7.3,0,0,0-1.586-2.276q-2.711-2.584-8.649-2.6l-14.7-.042a11.7,11.7,0,0,1,.49,3.723q0,1.109-.114,2.217l.752,0a2.58,2.58,0,0,1,.757-2.109,3.806,3.806,0,0,1,2.4-.6l13.845.04a9.3,9.3,0,0,1,4.97,1.141,3.917,3.917,0,0,1,1.888,3.315Z" transform="translate(-2.723 -8.454)" fill="none" stroke="#fff" stroke-miterlimit="10" stroke-width="0.75"/>
        </g>
      </g>
      <text id="a-6" data-name="a" transform="translate(69.135 134.375) rotate(-79.196)" fill="#7b6c6c" font-size="34" font-family="PlayfairDisplay-Regular, Playfair Display"><tspan x="0" y="0">a</tspan></text>
      <g id="Group_225" data-name="Group 225">
        <g id="Group_224" data-name="Group 224" clip-path="url(#clip-path-29)">
          <path id="Path_116" data-name="Path 116" d="M74.266,134.451a2.733,2.733,0,0,1-1.2,1.885,3.388,3.388,0,0,1-2.537.316,3.983,3.983,0,0,1-2.134-1.026,4.786,4.786,0,0,1-1.118-1.689,16.377,16.377,0,0,1-.659-2.365q-.305-1.26-.515-1.882a2.5,2.5,0,0,0-.639-1.034l6.887,1.314Q74.708,132.132,74.266,134.451Zm1.111,1.815a6.954,6.954,0,0,0-.1-3.224,6.241,6.241,0,0,0-1.979-2.89,3.648,3.648,0,0,0,2.411-.233,2.889,2.889,0,0,0,1.293-2.193,3.969,3.969,0,0,0,.012-1.692,8.649,8.649,0,0,0-.7-1.755l-.671.273a4.549,4.549,0,0,1,.394.894,1.7,1.7,0,0,1,.043.828.94.94,0,0,1-.548.77,2.494,2.494,0,0,1-1.312,0l-9.77-1.864a12.512,12.512,0,0,0-3.061-.275,4.037,4.037,0,0,0-2.175.806,6,6,0,0,0-2.092,3.9,10.131,10.131,0,0,0-.156,2.92,7.427,7.427,0,0,0,.575,2.332,5.015,5.015,0,0,0,.893,1.426,2.38,2.38,0,0,0,1.328.672,2.352,2.352,0,0,0,1.587-.207,1.808,1.808,0,0,0,.9-1.358,2.1,2.1,0,0,0-.234-1.538,1.816,1.816,0,0,0-1.281-.828,2.145,2.145,0,0,0-1.5.206,2.251,2.251,0,0,0-.961,1.038,4.3,4.3,0,0,1-.6-3.721,3.6,3.6,0,0,1,1.215-2.263,3.686,3.686,0,0,1,2.958-.329l2.179.416a1.729,1.729,0,0,1,1.33,1.237,16.562,16.562,0,0,1,.673,3.152,25.914,25.914,0,0,0,.672,3.352,6.608,6.608,0,0,0,1.228,2.346,3.961,3.961,0,0,0,2.437,1.358,4.307,4.307,0,0,0,3.278-.486A4.459,4.459,0,0,0,75.377,136.266Z" transform="translate(-3.331 -7.272)" fill="none" stroke="#fff" stroke-miterlimit="10" stroke-width="0.75"/>
        </g>
      </g>
      <text id="r-5" data-name="r" transform="translate(72.296 117.8) rotate(-65.967)" fill="#7b6c6c" font-size="34" font-family="PlayfairDisplay-Regular, Playfair Display"><tspan x="0" y="0">r</tspan></text>
      <g id="Group_227" data-name="Group 227">
        <g id="Group_226" data-name="Group 226" clip-path="url(#clip-path-29)">
          <path id="Path_117" data-name="Path 117" d="M64.992,105.7a4.37,4.37,0,0,0,0,3.428,8.469,8.469,0,0,0,2.07,3.175l-4.085-1.821a11.594,11.594,0,0,1-1.057,3.6q-.435.98-1,1.983l.686.306a2.577,2.577,0,0,1,1.545-1.622,3.8,3.8,0,0,1,2.438.421l10.227,4.561a2.667,2.667,0,0,1,1.6,1.379,3.122,3.122,0,0,1-.353,2.152l.686.307q1.21-3.063,1.589-3.914.407-.915,1.993-4.2l.381-.77-.687-.306a5.081,5.081,0,0,1-1.746,2.335,2.565,2.565,0,0,1-2.477-.066l-6.927-3.09a7.855,7.855,0,0,1-2.45-1.8,7.6,7.6,0,0,1-1.705-2.719,3.607,3.607,0,0,1,.038-2.764.855.855,0,0,1,.632-.54,2.223,2.223,0,0,0,1.27,1.9,1.744,1.744,0,0,0,1.468.047,1.933,1.933,0,0,0,1-1.022,1.84,1.84,0,0,0,0-1.626,2.4,2.4,0,0,0-1.229-1.154,2.6,2.6,0,0,0-2.2.017A3.369,3.369,0,0,0,64.992,105.7Z" transform="translate(-3.565 -6.065)" fill="none" stroke="#fff" stroke-miterlimit="10" stroke-width="0.75"/>
        </g>
      </g>
      <text id="n-3" data-name="n" transform="translate(77.94 103.995) rotate(-51.462)" fill="#7b6c6c" font-size="34" font-family="PlayfairDisplay-Regular, Playfair Display"><tspan x="0" y="0">n</tspan></text>
      <g id="Group_229" data-name="Group 229">
        <g id="Group_228" data-name="Group 228" clip-path="url(#clip-path-29)">
          <path id="Path_118" data-name="Path 118" d="M76.591,88.012a6.512,6.512,0,0,0-1.441,3.448,6.615,6.615,0,0,0,1.038,4.006l-3.3-2.63a11.636,11.636,0,0,1-1.925,3.222q-.669.84-1.467,1.668l.588.469a2.576,2.576,0,0,1,1.9-1.183,3.8,3.8,0,0,1,2.255,1.018L83,105.006a2.676,2.676,0,0,1,1.2,1.736,3.132,3.132,0,0,1-.88,2l.587.468q1.939-2.663,2.563-3.447t2.608-3.045l-.587-.468a2.462,2.462,0,0,1-1.582,1.095,2.978,2.978,0,0,1-1.9-.854L78.79,97.54a8.468,8.468,0,0,1-2.2-2.552,5.543,5.543,0,0,1-.729-2.845,4.237,4.237,0,0,1,.955-2.578A2.4,2.4,0,0,1,79.092,88.4a6.552,6.552,0,0,1,2.749,1.457L89.929,96.3a2.992,2.992,0,0,1,1.259,1.665,2.464,2.464,0,0,1-.716,1.786l.588.469Q92.82,97.785,93.444,97t2.787-3.269l-.587-.468A3.128,3.128,0,0,1,93.9,94.569a2.669,2.669,0,0,1-1.959-.783l-7.474-5.951a11.633,11.633,0,0,0-2.443-1.583,4.068,4.068,0,0,0-2-.359A4.979,4.979,0,0,0,76.591,88.012Z" transform="translate(-4.066 -5.025)" fill="none" stroke="#fff" stroke-miterlimit="10" stroke-width="0.75"/>
        </g>
      </g>
      <text id="e-2" data-name="e" transform="translate(90.069 87.33) rotate(-36.11)" fill="#7b6c6c" font-size="33" font-family="PlayfairDisplay-Regular, Playfair Display"><tspan x="0" y="0">e</tspan></text>
      <g id="Group_231" data-name="Group 231">
        <g id="Group_230" data-name="Group 230" clip-path="url(#clip-path-29)">
          <path id="Path_119" data-name="Path 119" d="M93.888,73.2a2.79,2.79,0,0,1,3.193-.024,10.26,10.26,0,0,1,3.39,3.282l-6.3,4.6a9.621,9.621,0,0,1-1.654-4.817A3.543,3.543,0,0,1,93.888,73.2ZM107,80.55a6.162,6.162,0,0,1-.169,3.532,5.632,5.632,0,0,1-1.971,2.457,4.4,4.4,0,0,1-2.711.8,6.568,6.568,0,0,1-3.241-.981,10.135,10.135,0,0,1-3.046-2.87A22,22,0,0,1,94.6,81.581l9.047-6.6q-2.34-3.209-4.891-3.76A6.281,6.281,0,0,0,93.6,72.566a7.4,7.4,0,0,0-2.711,3.506,7.966,7.966,0,0,0-.207,4.513,13.391,13.391,0,0,0,2.373,4.955,11.3,11.3,0,0,0,3.652,3.337,7.5,7.5,0,0,0,4.217.954,8.135,8.135,0,0,0,4.24-1.654,6.647,6.647,0,0,0,2.62-3.661,7.106,7.106,0,0,0-.04-4.154Z" transform="translate(-5.293 -4.16)" fill="none" stroke="#fff" stroke-miterlimit="10" stroke-width="0.75"/>
        </g>
      </g>
      <text id="y-2" data-name="y" transform="translate(103.738 77.2) rotate(-22.217)" fill="#7b6c6c" font-size="33" font-family="PlayfairDisplay-Regular, Playfair Display"><tspan x="0" y="0">y</tspan></text>
      <g id="Group_233" data-name="Group 233">
        <g id="Group_232" data-name="Group 232" clip-path="url(#clip-path-29)">
          <path id="Path_120" data-name="Path 120" d="M117.707,60.468q-1.027.419-2.824,1.038l.272.663a4.741,4.741,0,0,1,2.076-.308,1.325,1.325,0,0,1,1.056.883,5.263,5.263,0,0,1,.259,1.671l.233,11.074-8.005-8.246a4.583,4.583,0,0,1-1.061-1.46.969.969,0,0,1,.155-1.183,5.915,5.915,0,0,1,1.658-.909l-.284-.7q-2.57,1.282-4.224,1.957a25.6,25.6,0,0,1-3.327,1.127l.283.7a2.227,2.227,0,0,1,1.276-.1,4.065,4.065,0,0,1,1.734,1.03L118.89,79.733l.072,3.488q.061,2.99-1.761,3.733a.508.508,0,0,1-.213.048,1.73,1.73,0,0,0,.286-1.856,1.544,1.544,0,0,0-.947-.947,1.932,1.932,0,0,0-1.377.08,1.851,1.851,0,0,0-1.1,1.008,1.9,1.9,0,0,0,.058,1.464,1.945,1.945,0,0,0,1.225,1.2,2.63,2.63,0,0,0,1.839-.133,5.429,5.429,0,0,0,1.31-.767,3.084,3.084,0,0,0,.922-1.15,6.367,6.367,0,0,0,.477-2.9l-.051-3.341-.385-16.46a5.661,5.661,0,0,1,.275-2.122A2.015,2.015,0,0,1,120.454,60l-.27-.662Q119.163,59.873,117.707,60.468Z" transform="translate(-6.067 -3.472)" fill="none" stroke="#fff" stroke-miterlimit="10" stroke-width="0.75"/>
        </g>
      </g>
      <text id="_5" data-name=" " transform="matrix(0.976, -0.216, 0.216, 0.976, 118.246, 67.297)" fill="#7b6c6c" font-size="30" font-family="PlayfairDisplay-Regular, Playfair Display"><tspan x="0" y="0"> </tspan></text>
      <text id="_6" data-name=" " transform="translate(127.042 65.36) rotate(-5.538)" fill="#7b6c6c" font-size="30" font-family="PlayfairDisplay-Regular, Playfair Display"><tspan x="0" y="0"> </tspan></text>
      <text id="M-2" data-name="M" transform="translate(135.543 66.94) rotate(10.025)" fill="#7b6c6c" font-size="33" font-family="PlayfairDisplay-Regular, Playfair Display"><tspan x="0" y="0">M</tspan></text>
      <g id="Group_235" data-name="Group 235">
        <g id="Group_234" data-name="Group 234" clip-path="url(#clip-path-29)">
          <path id="Path_121" data-name="Path 121" d="M177.07,53.212l.124-.705q-1.64-.179-4.494-.685l-1.655-.292L159.884,70.483,155.74,48.715q-1.182-.1-3.014-.425-2.114-.374-3.258-.684l-.124.7a7.16,7.16,0,0,1,1.8.608,1.285,1.285,0,0,1,.65.951,6.46,6.46,0,0,1-.13,1.975l-3.028,17.122a7.4,7.4,0,0,1-.571,1.988,1.581,1.581,0,0,1-.984.843,4.983,4.983,0,0,1-1.9.046l-.125.7q1.182.1,3.3.475,2.326.411,3.575.741l.126-.7a6.27,6.27,0,0,1-2.015-.738,1.618,1.618,0,0,1-.726-1.127,6.817,6.817,0,0,1,.132-2.084l3.288-18.6,4.836,24.434.565.1,12.52-21.293-3.339,18.882a6.508,6.508,0,0,1-.555,1.9,1.285,1.285,0,0,1-.936.669,7.112,7.112,0,0,1-1.9-.044l-.124.7q1.5.155,4.529.691,2.853.5,4.456.9l.124-.7a7.143,7.143,0,0,1-1.8-.609,1.286,1.286,0,0,1-.649-.951,6.471,6.471,0,0,1,.131-1.975l3.088-17.474a6.518,6.518,0,0,1,.555-1.9,1.291,1.291,0,0,1,.937-.67A7.163,7.163,0,0,1,177.07,53.212Z" transform="translate(-8.488 -2.786)" fill="none" stroke="#fff" stroke-miterlimit="10" stroke-width="0.75"/>
        </g>
      </g>
      <text id="a-7" data-name="a" transform="translate(164.347 73.912) rotate(29.081)" fill="#7b6c6c" font-size="34" font-family="PlayfairDisplay-Regular, Playfair Display"><tspan x="0" y="0">a</tspan></text>
      <g id="Group_237" data-name="Group 237">
        <g id="Group_236" data-name="Group 236" clip-path="url(#clip-path-29)">
          <path id="Path_122" data-name="Path 122" d="M180.935,81.722a2.737,2.737,0,0,1-1.414-1.728,3.4,3.4,0,0,1,.5-2.509,3.985,3.985,0,0,1,1.645-1.705,4.8,4.8,0,0,1,1.953-.531,16.554,16.554,0,0,1,2.453.116q1.294.106,1.952.1a2.493,2.493,0,0,0,1.182-.283l-3.409,6.127Q183,82.87,180.935,81.722Zm-2.07.486a6.943,6.943,0,0,0,3.089.921,6.237,6.237,0,0,0,3.366-.973,3.651,3.651,0,0,0-.536,2.363,2.9,2.9,0,0,0,1.678,1.915,3.975,3.975,0,0,0,1.6.542,8.776,8.776,0,0,0,1.887-.117l-.048-.723a4.606,4.606,0,0,1-.973.093,1.7,1.7,0,0,1-.8-.218.933.933,0,0,1-.558-.762A2.47,2.47,0,0,1,187.978,84l4.834-8.693a12.519,12.519,0,0,0,1.223-2.821,4.053,4.053,0,0,0-.083-2.318,6.014,6.014,0,0,0-3.048-3.209,10.115,10.115,0,0,0-2.723-1.065,7.422,7.422,0,0,0-2.394-.185,5.037,5.037,0,0,0-1.635.4,2.391,2.391,0,0,0-1.055,1.052,2.352,2.352,0,0,0-.3,1.572,1.808,1.808,0,0,0,1.008,1.277,2.1,2.1,0,0,0,1.535.26,1.821,1.821,0,0,0,1.188-.957,2.15,2.15,0,0,0,.272-1.486,2.249,2.249,0,0,0-.682-1.239,4.3,4.3,0,0,1,3.72.6,3.593,3.593,0,0,1,1.769,1.863,3.68,3.68,0,0,1-.617,2.912L189.911,73.9a1.733,1.733,0,0,1-1.593.875,16.6,16.6,0,0,1-3.2-.349,25.937,25.937,0,0,0-3.394-.412,6.564,6.564,0,0,0-2.612.429,3.964,3.964,0,0,0-2.055,1.887,4.311,4.311,0,0,0-.566,3.267A4.462,4.462,0,0,0,178.865,82.208Z" transform="translate(-10.32 -3.843)" fill="none" stroke="#fff" stroke-miterlimit="10" stroke-width="0.75"/>
        </g>
      </g>
      <text id="r-6" data-name="r" transform="matrix(0.742, 0.671, -0.671, 0.742, 179.062, 82.102)" fill="#7b6c6c" font-size="34" font-family="PlayfairDisplay-Regular, Playfair Display"><tspan x="0" y="0">r</tspan></text>
      <g id="Group_239" data-name="Group 239">
        <g id="Group_238" data-name="Group 238" clip-path="url(#clip-path-29)">
          <path id="Path_123" data-name="Path 123" d="M210.814,81.78a4.371,4.371,0,0,0-3.258-1.065,8.482,8.482,0,0,0-3.661.982l3-3.317a11.645,11.645,0,0,1-3.095-2.124q-.8-.719-1.574-1.567l-.5.557a2.577,2.577,0,0,1,1.062,1.972,3.816,3.816,0,0,1-1.156,2.186l-7.511,8.306a2.672,2.672,0,0,1-1.808,1.09,3.126,3.126,0,0,1-1.937-1l-.5.557q2.536,2.1,3.227,2.725.741.672,3.377,3.2l.613.6.5-.557a5.082,5.082,0,0,1-1.677-2.385,2.559,2.559,0,0,1,.832-2.334l5.087-5.625A7.845,7.845,0,0,1,204.3,82.21a7.612,7.612,0,0,1,3.115-.778,3.607,3.607,0,0,1,2.615.894.86.86,0,0,1,.317.769,2.221,2.221,0,0,0-2.2.618,1.741,1.741,0,0,0-.5,1.38,1.928,1.928,0,0,0,.66,1.271,1.834,1.834,0,0,0,1.544.5,2.406,2.406,0,0,0,1.481-.808,2.6,2.6,0,0,0,.667-2.1A3.37,3.37,0,0,0,210.814,81.78Z" transform="translate(-11.11 -4.37)" fill="none" stroke="#fff" stroke-miterlimit="10" stroke-width="0.75"/>
        </g>
      </g>
      <text id="i-3" data-name="i" transform="matrix(0.61, 0.792, -0.792, 0.61, 191.783, 91.185)" fill="#7b6c6c" font-size="32" font-family="PlayfairDisplay-Regular, Playfair Display"><tspan x="0" y="0">i</tspan></text>
      <g id="Group_241" data-name="Group 241">
        <g id="Group_240" data-name="Group 240" clip-path="url(#clip-path-29)">
          <path id="Path_124" data-name="Path 124" d="M219.879,92.394a11.64,11.64,0,0,1-2.666-2.644q-.657-.849-1.268-1.823l-.6.458a2.574,2.574,0,0,1,.694,2.132,3.814,3.814,0,0,1-1.528,1.943l-8.873,6.83a2.676,2.676,0,0,1-1.974.751,3.143,3.143,0,0,1-1.727-1.334l-.594.458q2.118,2.521,2.753,3.344t2.528,3.516l.6-.458a3.133,3.133,0,0,1-.848-2.011,2.666,2.666,0,0,1,1.231-1.714Zm5.639-6.69a2.321,2.321,0,1,0,.443,1.691A2.2,2.2,0,0,0,225.519,85.7Z" transform="translate(-11.782 -4.963)" fill="none" stroke="#fff" stroke-miterlimit="10" stroke-width="0.75"/>
        </g>
      </g>
      <text id="a-8" data-name="a" transform="translate(196.48 99.861) rotate(63.546)" fill="#7b6c6c" font-size="34" font-family="PlayfairDisplay-Regular, Playfair Display"><tspan x="0" y="0">a</tspan></text>
      <g id="Group_243" data-name="Group 243">
        <g id="Group_242" data-name="Group 242" clip-path="url(#clip-path-29)">
          <path id="Path_125" data-name="Path 125" d="M211.631,112.621a2.739,2.739,0,0,1-.188-2.225,3.4,3.4,0,0,1,1.828-1.789,3.984,3.984,0,0,1,2.321-.475,4.816,4.816,0,0,1,1.91.667,16.441,16.441,0,0,1,1.957,1.484q1.007.818,1.549,1.187a2.485,2.485,0,0,0,1.136.434l-6.278,3.124Q212.683,114.734,211.631,112.621Zm-1.982-.773a6.939,6.939,0,0,0,2.027,2.509,6.242,6.242,0,0,0,3.325,1.1,3.641,3.641,0,0,0-1.778,1.645,2.9,2.9,0,0,0,.3,2.529,4.018,4.018,0,0,0,1.014,1.354,8.678,8.678,0,0,0,1.622.971l.369-.623a4.6,4.6,0,0,1-.855-.474,1.7,1.7,0,0,1-.535-.633.939.939,0,0,1-.03-.944,2.509,2.509,0,0,1,1.041-.8l8.9-4.43a12.544,12.544,0,0,0,2.6-1.635,4.041,4.041,0,0,0,1.244-1.958,6.011,6.011,0,0,0-.695-4.368,10.2,10.2,0,0,0-1.643-2.42,7.45,7.45,0,0,0-1.869-1.507,5.08,5.08,0,0,0-1.576-.6,2.389,2.389,0,0,0-1.464.269,2.358,2.358,0,0,0-1.139,1.125,1.813,1.813,0,0,0,.109,1.625,2.109,2.109,0,0,0,1.118,1.082,1.814,1.814,0,0,0,1.521-.117,2.142,2.142,0,0,0,1.067-1.07,2.254,2.254,0,0,0,.138-1.408,4.306,4.306,0,0,1,2.731,2.6,3.6,3.6,0,0,1,.4,2.537q-.3,1.127-2.156,2.051l-1.987.988a1.73,1.73,0,0,1-1.807-.179,16.686,16.686,0,0,1-2.445-2.1,25.844,25.844,0,0,0-2.562-2.26,6.605,6.605,0,0,0-2.4-1.124,3.955,3.955,0,0,0-2.76.394,4.309,4.309,0,0,0-2.317,2.371A4.466,4.466,0,0,0,209.649,111.848Z" transform="translate(-12.229 -5.942)" fill="none" stroke="#fff" stroke-miterlimit="10" stroke-width="0.75"/>
        </g>
      </g>
      <text id="_7" data-name=" " transform="translate(208.415 113.445) rotate(73.646)" fill="#7b6c6c" font-size="30" font-family="PlayfairDisplay-Regular, Playfair Display"><tspan x="0" y="0"> </tspan></text>
      <text id="_8" data-name=" " transform="translate(210.941 122.076) rotate(80.575)" fill="#7b6c6c" font-size="30" font-family="PlayfairDisplay-Regular, Playfair Display"><tspan x="0" y="0"> </tspan></text>
      <text id="B-4" data-name="B" transform="translate(209.119 130.804) rotate(92.668)" fill="#7b6c6c" font-size="33" font-family="PlayfairDisplay-Regular, Playfair Display"><tspan x="0" y="0">B</tspan></text>
      <g id="Group_245" data-name="Group 245">
        <g id="Group_244" data-name="Group 244" clip-path="url(#clip-path-29)">
          <path id="Path_126" data-name="Path 126" d="M219.657,149.337a4.649,4.649,0,0,1,.312-1.686,1.346,1.346,0,0,1,.877-.729,6.136,6.136,0,0,1,1.9-.127l9.041.422-.138,3q-.157,3.323-1.692,4.773a5.7,5.7,0,0,1-4.359,1.319Q219.346,156.02,219.657,149.337Zm23.768,1.072a4.9,4.9,0,0,1-1.5,3.762,5.875,5.875,0,0,1-4.058.992,7.034,7.034,0,0,1-4.181-1.359q-1.537-1.236-1.4-4.166l.111-2.394,8.078.377a6.5,6.5,0,0,1,1.92.3,1.412,1.412,0,0,1,.857.809A4.226,4.226,0,0,1,243.425,150.409Zm-11.361,2.479.07,0a8.123,8.123,0,0,0,2.309,4.244,5.833,5.833,0,0,0,3.657,1.478,4.933,4.933,0,0,0,4.164-1.759,8.866,8.866,0,0,0,1.8-5.521q.04-.857.036-1.538l.145-3.862q.131-2.858.31-4.354l-.715-.033a7.185,7.185,0,0,1-.374,1.863,1.286,1.286,0,0,1-.86.765,6.477,6.477,0,0,1-1.975.122l-17.726-.825a6.458,6.458,0,0,1-1.955-.307,1.285,1.285,0,0,1-.784-.843,7.129,7.129,0,0,1-.2-1.89l-.715-.033q.038,1.505-.1,4.436-.1,2.216-.282,4.5-.069.678-.112,1.643a11,11,0,0,0,.662,4.615,6.833,6.833,0,0,0,2.309,3.081,6.422,6.422,0,0,0,3.562,1.2,5.781,5.781,0,0,0,4.242-1.486Q231.344,156.793,232.064,152.888Z" transform="translate(-12.8 -8.216)" fill="none" stroke="#fff" stroke-miterlimit="10" stroke-width="0.75"/>
        </g>
      </g>
      <text id="j-4" data-name="j" transform="translate(209.466 152.662) rotate(104.914)" fill="#7b6c6c" font-size="31" font-family="PlayfairDisplay-Regular, Playfair Display"><tspan x="0" y="0">j</tspan></text>
      <g id="Group_247" data-name="Group 247">
        <g id="Group_246" data-name="Group 246" clip-path="url(#clip-path-29)">
          <path id="Path_127" data-name="Path 127" d="M242.587,172.346a2.322,2.322,0,1,0-1.071,1.381A2.2,2.2,0,0,0,242.587,172.346ZM211.114,158.04a6.734,6.734,0,0,0-.153,2.866,7.311,7.311,0,0,0,.954,2.605q1.964,3.189,7.7,4.718l14.209,3.784a11.716,11.716,0,0,1,.473-3.725q.287-1.072.675-2.116l-.726-.193a2.579,2.579,0,0,1-1.269,1.846,3.8,3.8,0,0,1-2.473-.03l-13.378-3.563a9.306,9.306,0,0,1-4.514-2.369,3.917,3.917,0,0,1-.982-3.687Z" transform="translate(-12.339 -9.248)" fill="none" stroke="#fff" stroke-miterlimit="10" stroke-width="0.75"/>
        </g>
      </g>
      <text id="a-9" data-name="a" transform="translate(204.759 160.465) rotate(115.659)" fill="#7b6c6c" font-size="34" font-family="PlayfairDisplay-Regular, Playfair Display"><tspan x="0" y="0">a</tspan></text>
      <g id="Group_249" data-name="Group 249">
        <g id="Group_248" data-name="Group 248" clip-path="url(#clip-path-29)">
          <path id="Path_128" data-name="Path 128" d="M213.375,177.04a2.74,2.74,0,0,1,1.64-1.514,3.39,3.39,0,0,1,2.534.344,3.982,3.982,0,0,1,1.8,1.54,4.8,4.8,0,0,1,.647,1.918,16.477,16.477,0,0,1,.032,2.456q-.03,1.3.015,1.951a2.491,2.491,0,0,0,.353,1.164l-6.32-3.036Q212.354,179.168,213.375,177.04ZM212.767,175a6.926,6.926,0,0,0-.734,3.14,6.228,6.228,0,0,0,1.172,3.3,3.647,3.647,0,0,0-2.389-.394A2.9,2.9,0,0,0,209,182.838a3.974,3.974,0,0,0-.445,1.632,8.827,8.827,0,0,0,.229,1.876l.718-.091a4.607,4.607,0,0,1-.151-.965,1.711,1.711,0,0,1,.171-.812.939.939,0,0,1,.727-.6,2.5,2.5,0,0,1,1.27.332l8.963,4.306a12.532,12.532,0,0,0,2.89,1.051,4.046,4.046,0,0,0,2.308-.22,6.015,6.015,0,0,0,3.022-3.233,10.152,10.152,0,0,0,.9-2.782,7.464,7.464,0,0,0,.042-2.4,5.063,5.063,0,0,0-.5-1.609,2.384,2.384,0,0,0-1.111-.99,2.352,2.352,0,0,0-1.587-.207,1.807,1.807,0,0,0-1.215,1.083,2.1,2.1,0,0,0-.167,1.547,1.813,1.813,0,0,0,1.025,1.129,2.15,2.15,0,0,0,1.5.184,2.252,2.252,0,0,0,1.2-.755,4.307,4.307,0,0,1-.374,3.751,3.588,3.588,0,0,1-1.754,1.875,3.688,3.688,0,0,1-2.944-.441l-2-.961A1.732,1.732,0,0,1,220.75,184a16.591,16.591,0,0,1,.157-3.218,25.885,25.885,0,0,0,.21-3.412,6.6,6.6,0,0,0-.585-2.582,3.96,3.96,0,0,0-2.007-1.938,4.306,4.306,0,0,0-3.293-.371A4.463,4.463,0,0,0,212.767,175Z" transform="translate(-12.204 -10.082)" fill="none" stroke="#fff" stroke-miterlimit="10" stroke-width="0.75"/>
        </g>
      </g>
      <text id="r-7" data-name="r" transform="translate(197.473 175.628) rotate(128.768)" fill="#7b6c6c" font-size="34" font-family="PlayfairDisplay-Regular, Playfair Display"><tspan x="0" y="0">r</tspan></text>
      <g id="Group_251" data-name="Group 251">
        <g id="Group_250" data-name="Group 250" clip-path="url(#clip-path-29)">
          <path id="Path_129" data-name="Path 129" d="M215.14,206.864a4.371,4.371,0,0,0,.872-3.315,8.468,8.468,0,0,0-1.194-3.6l3.486,2.8a11.677,11.677,0,0,1,1.94-3.214q.669-.837,1.472-1.663l-.586-.471a2.583,2.583,0,0,1-1.906,1.176,3.8,3.8,0,0,1-2.251-1.027l-8.73-7.011a2.672,2.672,0,0,1-1.2-1.741,3.137,3.137,0,0,1,.89-1.992l-.586-.471q-1.95,2.655-2.533,3.382-.626.78-3,3.558l-.564.648.586.47a5.09,5.09,0,0,1,2.283-1.814,2.568,2.568,0,0,1,2.378.695l5.913,4.749a7.86,7.86,0,0,1,1.913,2.362,7.606,7.606,0,0,1,.957,3.064,3.6,3.6,0,0,1-.74,2.663.858.858,0,0,1-.75.362,2.215,2.215,0,0,0-.744-2.158,1.738,1.738,0,0,0-1.408-.418,1.927,1.927,0,0,0-1.231.732A1.844,1.844,0,0,0,210,206.2a2.4,2.4,0,0,0,.893,1.428,2.6,2.6,0,0,0,2.134.544A3.367,3.367,0,0,0,215.14,206.864Z" transform="translate(-11.777 -10.904)" fill="none" stroke="#fff" stroke-miterlimit="10" stroke-width="0.75"/>
        </g>
      </g>
      <text id="n-4" data-name="n" transform="translate(188.445 187.624) rotate(143.262)" fill="#7b6c6c" font-size="34" font-family="PlayfairDisplay-Regular, Playfair Display"><tspan x="0" y="0">n</tspan></text>
      <g id="Group_253" data-name="Group 253">
        <g id="Group_252" data-name="Group 252" clip-path="url(#clip-path-29)">
          <path id="Path_130" data-name="Path 130" d="M198.959,220.938a6.515,6.515,0,0,0,2.272-2.968,6.613,6.613,0,0,0,.013-4.14l2.524,3.383a11.689,11.689,0,0,1,2.683-2.627c.571-.428,1.188-.842,1.841-1.24l-.448-.6a2.583,2.583,0,0,1-2.142.661,3.807,3.807,0,0,1-1.921-1.558l-6.7-8.973a2.674,2.674,0,0,1-.721-1.984,3.135,3.135,0,0,1,1.36-1.707l-.449-.6q-2.553,2.084-3.355,2.683t-3.3,2.282l.45.6a2.464,2.464,0,0,1,1.807-.659,2.987,2.987,0,0,1,1.626,1.31l4.75,6.365a8.46,8.46,0,0,1,1.479,3.026,5.555,5.555,0,0,1-.018,2.938,4.246,4.246,0,0,1-1.579,2.25,2.4,2.4,0,0,1-2.5.545,6.564,6.564,0,0,1-2.288-2.109l-6.186-8.286a2.99,2.99,0,0,1-.793-1.93,2.465,2.465,0,0,1,1.145-1.547l-.449-.6q-2.325,1.912-3.127,2.512t-3.526,2.454l.45.6a3.128,3.128,0,0,1,2.023-.817,2.67,2.67,0,0,1,1.7,1.255l5.714,7.656a11.7,11.7,0,0,0,1.962,2.15,4.079,4.079,0,0,0,1.844.856A4.978,4.978,0,0,0,198.959,220.938Z" transform="translate(-10.616 -11.62)" fill="none" stroke="#fff" stroke-miterlimit="10" stroke-width="0.75"/>
        </g>
      </g>
      <text id="a-10" data-name="a" transform="matrix(-0.931, 0.364, -0.364, -0.931, 172.142, 199.674)" fill="#7b6c6c" font-size="34" font-family="PlayfairDisplay-Regular, Playfair Display"><tspan x="0" y="0">a</tspan></text>
      <g id="Group_255" data-name="Group 255">
        <g id="Group_254" data-name="Group 254" clip-path="url(#clip-path-29)">
          <path id="Path_131" data-name="Path 131" d="M174.75,214.388a2.74,2.74,0,0,1,2.231.011,3.388,3.388,0,0,1,1.62,1.979,3.991,3.991,0,0,1,.268,2.354,4.818,4.818,0,0,1-.835,1.844,16.468,16.468,0,0,1-1.651,1.817q-.9.931-1.32,1.439a2.511,2.511,0,0,0-.532,1.092l-2.555-6.53Q172.551,215.249,174.75,214.388Zm.944-1.906a6.958,6.958,0,0,0-2.678,1.8,6.249,6.249,0,0,0-1.393,3.215,3.641,3.641,0,0,0-1.48-1.918,2.9,2.9,0,0,0-2.546.073,4,4,0,0,0-1.438.89,8.806,8.806,0,0,0-1.111,1.53l.587.423a4.692,4.692,0,0,1,.548-.81,1.713,1.713,0,0,1,.678-.476.936.936,0,0,1,.943.053,2.5,2.5,0,0,1,.7,1.109l3.625,9.261a12.451,12.451,0,0,0,1.4,2.738,4.037,4.037,0,0,0,1.839,1.412,6.014,6.014,0,0,0,4.415-.306,10.114,10.114,0,0,0,2.555-1.423,7.409,7.409,0,0,0,1.666-1.728,5.065,5.065,0,0,0,.732-1.516,2.385,2.385,0,0,0-.138-1.483,2.35,2.35,0,0,0-1.021-1.233,1.809,1.809,0,0,0-1.628-.036,2.11,2.11,0,0,0-1.177,1.018,1.811,1.811,0,0,0-.017,1.525,2.138,2.138,0,0,0,.972,1.156,2.248,2.248,0,0,0,1.39.264,4.308,4.308,0,0,1-2.829,2.489,3.6,3.6,0,0,1-2.563.177,3.691,3.691,0,0,1-1.853-2.329l-.809-2.066a1.734,1.734,0,0,1,.338-1.784,16.774,16.774,0,0,1,2.31-2.249,25.605,25.605,0,0,0,2.478-2.353,6.555,6.555,0,0,0,1.332-2.289,3.951,3.951,0,0,0-.147-2.784,4.309,4.309,0,0,0-2.158-2.518A4.463,4.463,0,0,0,175.694,212.483Z" transform="translate(-9.658 -12.407)" fill="none" stroke="#fff" stroke-miterlimit="10" stroke-width="0.75"/>
        </g>
      </g>
      <text id="d-2" data-name="d" transform="translate(156.715 207.096) rotate(173.65)" fill="#7b6c6c" font-size="33" font-family="PlayfairDisplay-Regular, Playfair Display"><tspan x="0" y="0">d</tspan></text>
      <g id="Group_257" data-name="Group 257">
        <g id="Group_256" data-name="Group 256" clip-path="url(#clip-path-29)">
          <path id="Path_132" data-name="Path 132" d="M154.984,218.93a3.984,3.984,0,0,1,3.867,1.748,17.513,17.513,0,0,1,1.342,13.025,4.065,4.065,0,0,1-3.3,2.654,3.864,3.864,0,0,1-4.288-2.3l-1.179-10.6a5.854,5.854,0,0,1,1.193-3.193A3.512,3.512,0,0,1,154.984,218.93Zm-6.849,4.111,2.671,24a11.653,11.653,0,0,1,3.643-.91q1.068-.119,2.216-.138l-.084-.748a2.58,2.58,0,0,1-2.18-.512,3.809,3.809,0,0,1-.87-2.315l-.768-6.9a4.17,4.17,0,0,0,1.973,1.383,5.891,5.891,0,0,0,2.528.241,7.561,7.561,0,0,0,6.463-5.165,11.876,11.876,0,0,0,.5-5.4q-.493-4.734-2.7-6.971a6.484,6.484,0,0,0-5.624-1.858,5.629,5.629,0,0,0-3.035,1.183,5.077,5.077,0,0,0-1.649,2.649l-.352-3.164a11.675,11.675,0,0,1-3.644.909q-1.1.124-2.216.139l.084.747a2.572,2.572,0,0,1,2.18.514A3.8,3.8,0,0,1,148.135,223.041Z" transform="translate(-8.485 -12.738)" fill="none" stroke="#fff" stroke-miterlimit="10" stroke-width="0.75"/>
        </g>
      </g>
      <text id="o-2" data-name="o" transform="translate(136.876 209.34) rotate(-170.667)" fill="#7b6c6c" font-size="33" font-family="PlayfairDisplay-Regular, Playfair Display"><tspan x="0" y="0">o</tspan></text>
      <g id="Group_259" data-name="Group 259">
        <g id="Group_258" data-name="Group 258" clip-path="url(#clip-path-29)">
          <path id="Path_133" data-name="Path 133" d="M132,235.866a3.8,3.8,0,0,1-3-2.723q-.877-2.374-.13-6.928t2.338-6.5a3.737,3.737,0,0,1,6.707,1.1q.883,2.356.134,6.91t-2.341,6.522A3.8,3.8,0,0,1,132,235.866Zm-.117.706a7.647,7.647,0,0,0,6.2-1.429q2.6-2.021,3.392-6.857t-1.022-7.564a8.423,8.423,0,0,0-11.614-1.909q-2.594,2-3.391,6.839t1.021,7.583A7.648,7.648,0,0,0,131.882,236.572Z" transform="translate(-7.326 -12.713)" fill="none" stroke="#fff" stroke-miterlimit="10" stroke-width="0.75"/>
        </g>
      </g>
      <text id="t-3" data-name="t" transform="translate(118.297 205.979) rotate(-158.031)" fill="#7b6c6c" font-size="33" font-family="PlayfairDisplay-Regular, Playfair Display"><tspan x="0" y="0">t</tspan></text>
      <g id="Group_261" data-name="Group 261">
        <g id="Group_260" data-name="Group 260" clip-path="url(#clip-path-29)">
          <path id="Path_134" data-name="Path 134" d="M110.14,236.026a11.122,11.122,0,0,1,3.173.74l2.048-5.076,3.186,1.285.267-.664-3.185-1.285,4.483-11.115a12.4,12.4,0,0,0,.869-2.967,4.187,4.187,0,0,0-.289-2.2,3.774,3.774,0,0,0-.959-1.352,5.934,5.934,0,0,0-1.751-1.015q-3.483-1.405-6.16,2.839l.6.433a7.351,7.351,0,0,1,2.325-2.225,2.438,2.438,0,0,1,2.093-.12,2.075,2.075,0,0,1,1.309,1.3,3.655,3.655,0,0,1-.323,2.376l-5.18,12.841-4.911-1.981-.267.664,4.911,1.98Z" transform="translate(-6.288 -12.407)" fill="none" stroke="#fff" stroke-miterlimit="10" stroke-width="0.75"/>
        </g>
      </g>
      <text id="t-4" data-name="t" transform="matrix(-0.859, -0.512, 0.512, -0.859, 108.276, 202.098)" fill="#7b6c6c" font-size="33" font-family="PlayfairDisplay-Regular, Playfair Display"><tspan x="0" y="0">t</tspan></text>
      <g id="Group_263" data-name="Group 263">
        <g id="Group_262" data-name="Group 262" clip-path="url(#clip-path-29)">
          <path id="Path_135" data-name="Path 135" d="M96.88,229.4a11.153,11.153,0,0,1,3.022,1.217l2.8-4.7,2.95,1.758.366-.614-2.95-1.759,6.135-10.3a12.344,12.344,0,0,0,1.312-2.8,4.176,4.176,0,0,0,.053-2.218,3.773,3.773,0,0,0-.741-1.482,5.938,5.938,0,0,0-1.575-1.272q-3.226-1.922-6.522,1.861l.523.52a7.322,7.322,0,0,1,2.639-1.842,2.44,2.44,0,0,1,2.087.2,2.079,2.079,0,0,1,1.094,1.485,3.66,3.66,0,0,1-.684,2.3L100.3,223.655l-4.549-2.711-.365.615,4.547,2.71Z" transform="translate(-5.582 -12.089)" fill="none" stroke="#fff" stroke-miterlimit="10" stroke-width="0.75"/>
        </g>
      </g>
      <text id="i-4" data-name="i" transform="translate(97.315 196.651) rotate(-140.485)" fill="#7b6c6c" font-size="32" font-family="PlayfairDisplay-Regular, Playfair Display"><tspan x="0" y="0">i</tspan></text>
      <g id="Group_265" data-name="Group 265">
        <g id="Group_264" data-name="Group 264" clip-path="url(#clip-path-29)">
          <path id="Path_136" data-name="Path 136" d="M87.062,215.618a11.712,11.712,0,0,1,3.189,1.981q.83.684,1.644,1.494l.478-.579a2.579,2.579,0,0,1-1.15-1.923,3.809,3.809,0,0,1,1.055-2.237l7.125-8.639a2.677,2.677,0,0,1,1.756-1.172,3.136,3.136,0,0,1,1.981.915l.478-.579q-2.63-1.986-3.431-2.645t-3.249-2.864l-.478.579a3.128,3.128,0,0,1,1.277,1.772,2.671,2.671,0,0,1-.817,1.945Zm-4,7.78a2.323,2.323,0,1,0-.81-1.549A2.2,2.2,0,0,0,83.058,223.4Z" transform="translate(-4.812 -11.666)" fill="none" stroke="#fff" stroke-miterlimit="10" stroke-width="0.75"/>
        </g>
      </g>
      <text id="r-8" data-name="r" transform="translate(90.823 189.087) rotate(-130.037)" fill="#7b6c6c" font-size="34" font-family="PlayfairDisplay-Regular, Playfair Display"><tspan x="0" y="0">r</tspan></text>
      <g id="Group_267" data-name="Group 267">
        <g id="Group_266" data-name="Group 266" clip-path="url(#clip-path-29)">
          <path id="Path_137" data-name="Path 137" d="M74.012,202.094a4.37,4.37,0,0,0,3.082,1.5,8.459,8.459,0,0,0,3.762-.473L77.433,206a11.662,11.662,0,0,1,2.776,2.526q.691.822,1.345,1.767l.574-.484a2.578,2.578,0,0,1-.782-2.1,3.8,3.8,0,0,1,1.444-2.006l8.574-7.2a2.673,2.673,0,0,1,1.938-.834,3.132,3.132,0,0,1,1.783,1.259l.575-.483q-2.226-2.429-2.825-3.14-.644-.767-2.91-3.63l-.524-.68-.575.483a5.083,5.083,0,0,1,1.336,2.592,2.563,2.563,0,0,1-1.143,2.2l-5.806,4.88a7.873,7.873,0,0,1-2.688,1.417,7.625,7.625,0,0,1-3.192.345,3.6,3.6,0,0,1-2.47-1.243.856.856,0,0,1-.209-.8,2.222,2.222,0,0,0,2.261-.312,1.742,1.742,0,0,0,.684-1.3,1.931,1.931,0,0,0-.48-1.349,1.837,1.837,0,0,0-1.462-.711,2.406,2.406,0,0,0-1.576.6,2.6,2.6,0,0,0-.947,1.987A3.375,3.375,0,0,0,74.012,202.094Z" transform="translate(-4.279 -11.176)" fill="none" stroke="#fff" stroke-miterlimit="10" stroke-width="0.75"/>
          <path id="Path_138" data-name="Path 138" d="M153.511,145.131a7.061,7.061,0,1,1-7.061-7.061,7.061,7.061,0,0,1,7.061,7.061" transform="translate(-8.156 -8.079)" fill="#ffc79f"/>
        </g>
      </g>
    </g>
    <line id="Line_7" data-name="Line 7" x2="629" transform="translate(15062 3157)" fill="none" stroke="#707070" stroke-width="1"/>
  </g>
</svg>
